<svg width="142" height="44" viewBox="0 0 142 44" fill="none" xmlns="http://www.w3.org/2000/svg">
    <rect x="0.5" y="0.5" width="43" height="43" rx="7.5" fill="white"/>
    <rect x="0.5" y="0.5" width="43" height="43" rx="7.5" stroke="#F5F5F5"/>
    <path d="M16.494 27.039L16.6587 27.0034C16.7377 27.0136 16.8132 27.0418 16.8796 27.0858C16.946 27.1298 17.0014 27.1884 17.0415 27.2571C17.4021 27.769 17.7715 28.272 18.1366 28.775C18.1487 28.7988 18.1685 28.8178 18.1927 28.8291C18.2168 28.8404 18.2441 28.8433 18.2701 28.8374L19.2316 28.7261L20.2109 28.5925C20.2641 28.5807 20.3194 28.5809 20.3725 28.5933C20.4257 28.6056 20.4754 28.6297 20.518 28.6638C20.5631 28.7065 20.6047 28.7526 20.6426 28.8017L20.6783 28.9664C20.6587 29.0485 20.6288 29.1278 20.5892 29.2024L19.423 30.8182C19.4103 30.834 19.4035 30.8536 19.4035 30.8738C19.4035 30.8941 19.4103 30.9137 19.423 30.9295L20.2776 32.71C20.323 32.7912 20.3388 32.8856 20.3222 32.9771C20.3111 33.0326 20.288 33.085 20.2545 33.1306C20.221 33.1762 20.1779 33.2139 20.1282 33.2411C20.0786 33.2682 20.0236 33.2842 19.9671 33.2878C19.9106 33.2914 19.8541 33.2826 19.8013 33.262C19.1782 33.0528 18.5505 32.8569 17.9273 32.6521C17.9098 32.6426 17.8894 32.6397 17.8699 32.6437C17.8503 32.6478 17.8328 32.6587 17.8205 32.6744L16.8635 33.5647C16.6988 33.7249 16.5341 33.8896 16.3605 34.0454C16.3173 34.0878 16.2643 34.1189 16.2061 34.1357C16.148 34.1525 16.0866 34.1546 16.0274 34.1418C15.9682 34.129 15.9132 34.1017 15.8672 34.0624C15.8212 34.023 15.7858 33.9728 15.764 33.9163C15.7305 33.8145 15.7169 33.7072 15.7239 33.6003C15.7239 32.986 15.7239 32.3673 15.7239 31.7485C15.7263 31.7321 15.7232 31.7154 15.7152 31.701C15.7072 31.6865 15.6946 31.675 15.6794 31.6684L15.1141 31.3657L13.9033 30.7114C13.8371 30.679 13.7824 30.627 13.7465 30.5626C13.7107 30.4981 13.6955 30.4242 13.703 30.3508C13.7025 30.2774 13.7256 30.2058 13.7689 30.1465C13.8122 30.0872 13.8734 30.0433 13.9434 30.0214C14.0948 29.9635 14.2506 29.919 14.3885 29.8656L15.2076 29.6163C15.4257 29.5451 15.6527 29.4694 15.8619 29.4027C15.8813 29.3966 15.8984 29.3848 15.9111 29.369C15.9238 29.3531 15.9314 29.3339 15.9332 29.3137C16.0444 28.6905 16.1602 28.0717 16.267 27.4485C16.2692 27.3671 16.2909 27.2873 16.3305 27.216C16.37 27.1448 16.4261 27.084 16.494 27.039Z" fill="#FDC831"/>
    <path d="M27.4697 20.8295H27.7056C27.812 20.8683 27.9077 20.9317 27.9851 21.0144C28.0624 21.0972 28.1191 21.197 28.1507 21.3058C28.4935 22.1203 28.8451 22.9349 29.1879 23.7495C29.1997 23.784 29.2219 23.814 29.2513 23.8355C29.2808 23.857 29.3161 23.869 29.3526 23.8697L30.7236 23.9899L32.1169 24.1145C32.195 24.116 32.2718 24.1347 32.3418 24.1693C32.4119 24.204 32.4734 24.2537 32.5219 24.3148C32.5709 24.3861 32.602 24.4662 32.6466 24.5463V24.7822C32.5913 24.8875 32.5241 24.9861 32.4463 25.076C31.7429 25.7037 31.0352 26.3224 30.323 26.9411C30.2997 26.9578 30.2823 26.9815 30.2735 27.0087C30.2647 27.036 30.2649 27.0653 30.274 27.0925C30.4832 27.9827 30.688 28.9042 30.8972 29.8122C30.9396 29.9378 30.9396 30.0739 30.8972 30.1995C30.8645 30.2734 30.8158 30.3392 30.7546 30.3921C30.6935 30.445 30.6214 30.4836 30.5435 30.5053C30.4656 30.527 30.3839 30.5312 30.3042 30.5176C30.2245 30.504 30.1488 30.4729 30.0826 30.4265C29.2903 29.9458 28.489 29.4695 27.6922 28.9932C27.6691 28.9758 27.641 28.9665 27.6121 28.9665C27.5832 28.9665 27.5551 28.9758 27.532 28.9932C27.0023 29.3181 26.4637 29.6342 25.9295 29.9547C25.6446 30.1238 25.3687 30.2974 25.0793 30.4577C25.0049 30.5103 24.918 30.5425 24.8273 30.551C24.7365 30.5595 24.6452 30.5441 24.5623 30.5063C24.4794 30.4684 24.4078 30.4095 24.3548 30.3353C24.3019 30.2612 24.2692 30.1744 24.2603 30.0838C24.2487 29.9339 24.2638 29.7832 24.3048 29.6386C24.4962 28.784 24.6921 27.9338 24.8879 27.0791C24.8976 27.0568 24.8993 27.0318 24.8928 27.0083C24.8864 26.9848 24.8721 26.9643 24.8523 26.95C24.6208 26.7542 24.4072 26.5539 24.1668 26.3536C23.6816 25.9084 23.192 25.5034 22.7068 25.0716C22.6256 25.0058 22.566 24.9172 22.5359 24.8172C22.5057 24.7172 22.5063 24.6104 22.5376 24.5107C22.563 24.4086 22.6195 24.317 22.6992 24.2484C22.7789 24.1798 22.878 24.1377 22.9827 24.1279C23.2053 24.1012 23.4279 24.0834 23.6593 24.0656L24.8657 23.9543L25.836 23.8653C25.8653 23.8654 25.8938 23.8558 25.9171 23.8381C25.9405 23.8204 25.9573 23.7956 25.9651 23.7673C26.3123 22.9438 26.6684 22.1248 27.0156 21.2969C27.0493 21.1888 27.108 21.0902 27.1869 21.009C27.2657 20.9278 27.3626 20.8663 27.4697 20.8295Z" fill="#FDC831"/>
    <path d="M25.6226 32.8792L25.7027 32.9104C25.7338 32.9371 25.7581 32.9708 25.7735 33.0087C25.789 33.0466 25.7953 33.0877 25.7917 33.1285C25.7917 33.449 25.814 33.7695 25.8273 34.0944C25.8257 34.1079 25.8288 34.1215 25.8361 34.1328C25.8434 34.1442 25.8545 34.1527 25.8674 34.1567L26.3125 34.3749L26.7577 34.5974C26.7833 34.6089 26.8064 34.6255 26.8256 34.6462C26.8447 34.6668 26.8594 34.6911 26.8689 34.7176C26.8733 34.7486 26.8733 34.7801 26.8689 34.8111L26.8422 34.8912C26.8106 34.9216 26.7746 34.9471 26.7354 34.9669L25.7695 35.323C25.7599 35.3263 25.7515 35.3322 25.7452 35.3401C25.7389 35.348 25.735 35.3575 25.7339 35.3675C25.6894 35.7058 25.6404 36.0397 25.5914 36.3735C25.5893 36.4223 25.5686 36.4685 25.5336 36.5026C25.5133 36.5235 25.4886 36.5396 25.4613 36.5497C25.434 36.5598 25.4048 36.5638 25.3759 36.5612C25.3469 36.5587 25.3188 36.5497 25.2937 36.5349C25.2687 36.5201 25.2472 36.5 25.2309 36.4759L24.6032 35.6791C24.5955 35.6733 24.5862 35.6702 24.5765 35.6702C24.5669 35.6702 24.5575 35.6733 24.5498 35.6791L23.8777 35.7948L23.526 35.8571C23.4953 35.8632 23.4635 35.8615 23.4336 35.8521C23.4037 35.8427 23.3766 35.8259 23.3549 35.8033C23.3332 35.7807 23.3175 35.753 23.3093 35.7227C23.301 35.6925 23.3006 35.6606 23.3079 35.6301C23.3224 35.5772 23.3465 35.5274 23.3791 35.4832L23.9088 34.6909C23.9088 34.6909 23.9088 34.6597 23.9088 34.6419L23.7575 34.3526L23.4236 33.725C23.4029 33.6932 23.3919 33.6561 23.3919 33.6181C23.3919 33.5802 23.4029 33.5431 23.4236 33.5113C23.4454 33.48 23.4764 33.4563 23.5123 33.4435C23.5483 33.4307 23.5873 33.4295 23.6239 33.4401C23.7041 33.4401 23.7842 33.4846 23.8599 33.5069L24.305 33.627L24.6477 33.7205C24.67 33.7205 24.6834 33.7205 24.7012 33.7205C24.9282 33.489 25.1463 33.2531 25.3778 33.0172C25.4021 32.9741 25.4378 32.9384 25.4809 32.9141C25.5241 32.8898 25.5731 32.8777 25.6226 32.8792Z" fill="#FDC831"/>
    <path d="M20.8506 15.7059C17.2896 16.7654 14.5431 18.6661 13.7285 20.4377L15.0194 24.7777C15.834 22.9972 18.5805 21.1054 22.1415 20.0504C25.7026 18.9955 29.0411 19.08 30.6925 20.1217L29.4016 15.7816C27.7502 14.74 24.4117 14.651 20.8506 15.7059Z" fill="#171838"/>
    <path d="M13.6089 20.0059C14.4279 18.2254 17.1699 16.3425 20.731 15.2875C24.2921 14.2326 27.6172 14.3216 29.2731 15.3543L33.1991 10.4757L18.7724 8.25L7.79102 18.2566L13.5377 20.0371L13.6089 20.0059Z" fill="#171838"/>
    <path opacity="0.1" d="M11.3516 15.016L15.3266 17.985C15.3266 17.985 18.674 15.5101 20.7305 15.2875L18.6651 8.35236L11.3516 15.016Z" fill="white"/>
    <path opacity="0.1" d="M15.4297 18.4168L16.7206 22.7702C16.7206 22.7702 19.3914 20.7003 22.0176 20.0994L20.7268 15.7504C20.7268 15.7504 17.3215 16.8143 15.4297 18.4212" fill="white"/>
    <path d="M8.9668 17.807V22.0536H9.34071V17.4509L8.9668 17.807Z" fill="#DF863E"/>
    <path d="M8.48448 23.4246H9.86884C9.86884 23.4246 9.94007 21.7509 9.17444 21.742C8.40881 21.7331 8.48448 23.4246 8.48448 23.4246Z" fill="#D38340"/>
    <path d="M10.4301 28.2409C10.4301 28.2409 10.2965 23.5759 9.86919 23.4246H8.43587C8.00854 23.5759 7.875 28.2409 7.875 28.2409C8.28251 28.3968 8.71632 28.4723 9.15253 28.4635C9.58874 28.4723 10.0226 28.3968 10.4301 28.2409Z" fill="#FDC831"/>
    <path opacity="0.1" d="M8.77371 21.9556C8.71257 22.4428 8.68135 22.9334 8.68023 23.4245C8.4498 25.065 8.32046 26.718 8.29297 28.3744C8.49276 28.4154 8.69496 28.4436 8.89835 28.4589L8.83158 23.3844C8.81602 22.8629 8.83535 22.341 8.88945 21.822L8.77371 21.9556Z" fill="white"/>
    <path d="M69.418 15.7227V24.9609C69.418 25.944 69.1999 26.8327 68.7637 27.627C68.334 28.4147 67.6797 29.0397 66.8008 29.502C65.9284 29.9642 64.8281 30.1953 63.5 30.1953C61.612 30.1953 60.1732 29.7135 59.1836 28.75C58.194 27.7865 57.6992 26.5104 57.6992 24.9219V15.7227H60.7168V24.4629C60.7168 25.6413 60.9577 26.4681 61.4395 26.9434C61.9212 27.4186 62.6341 27.6562 63.5781 27.6562C64.2422 27.6562 64.7793 27.5423 65.1895 27.3145C65.6061 27.0866 65.9121 26.735 66.1074 26.2598C66.3027 25.7845 66.4004 25.179 66.4004 24.4434V15.7227H69.418ZM78.8809 18.877C80.0462 18.877 80.9837 19.196 81.6934 19.834C82.403 20.4655 82.7578 21.4811 82.7578 22.8809V30H79.7793V23.623C79.7793 22.8418 79.6361 22.2526 79.3496 21.8555C79.0697 21.4583 78.627 21.2598 78.0215 21.2598C77.11 21.2598 76.4883 21.569 76.1562 22.1875C75.8242 22.806 75.6582 23.6979 75.6582 24.8633V30H72.6797V19.082H74.9551L75.3555 20.4785H75.5215C75.7559 20.1009 76.0456 19.7949 76.3906 19.5605C76.7422 19.3262 77.1296 19.1536 77.5527 19.043C77.9824 18.9323 78.4251 18.877 78.8809 18.877ZM88.8027 19.082V30H85.8242V19.082H88.8027ZM87.3184 14.8047C87.7611 14.8047 88.1419 14.9089 88.4609 15.1172C88.7799 15.319 88.9395 15.6999 88.9395 16.2598C88.9395 16.8132 88.7799 17.1973 88.4609 17.4121C88.1419 17.6204 87.7611 17.7246 87.3184 17.7246C86.8691 17.7246 86.485 17.6204 86.166 17.4121C85.8535 17.1973 85.6973 16.8132 85.6973 16.2598C85.6973 15.6999 85.8535 15.319 86.166 15.1172C86.485 14.9089 86.8691 14.8047 87.3184 14.8047ZM100.6 26.0352C100.6 26.8815 100.395 27.6172 99.9844 28.2422C99.5742 28.8672 98.9753 29.349 98.1875 29.6875C97.4062 30.026 96.4557 30.1953 95.3359 30.1953C94.8411 30.1953 94.3561 30.1628 93.8809 30.0977C93.4121 30.0326 92.9596 29.9382 92.5234 29.8145C92.0938 29.6842 91.6836 29.5247 91.293 29.3359V26.5234C91.9701 26.8229 92.6732 27.0931 93.4023 27.334C94.1315 27.5749 94.8542 27.6953 95.5703 27.6953C96.0651 27.6953 96.4622 27.6302 96.7617 27.5C97.0677 27.3698 97.2891 27.1908 97.4258 26.9629C97.5625 26.735 97.6309 26.4746 97.6309 26.1816C97.6309 25.8236 97.5104 25.5176 97.2695 25.2637C97.0286 25.0098 96.6966 24.7721 96.2734 24.5508C95.8568 24.3294 95.3848 24.0918 94.8574 23.8379C94.5254 23.6816 94.1641 23.4928 93.7734 23.2715C93.3828 23.0436 93.0117 22.7669 92.6602 22.4414C92.3086 22.1159 92.0189 21.722 91.791 21.2598C91.5697 20.791 91.459 20.2311 91.459 19.5801C91.459 18.7272 91.6543 17.998 92.0449 17.3926C92.4355 16.7871 92.9922 16.3249 93.7148 16.0059C94.444 15.6803 95.3034 15.5176 96.293 15.5176C97.0352 15.5176 97.7415 15.6055 98.4121 15.7812C99.0892 15.9505 99.7956 16.1979 100.531 16.5234L99.5547 18.877C98.8971 18.61 98.3079 18.4049 97.7871 18.2617C97.2663 18.112 96.7357 18.0371 96.1953 18.0371C95.8177 18.0371 95.4954 18.099 95.2285 18.2227C94.9616 18.3398 94.7598 18.5091 94.623 18.7305C94.4863 18.9453 94.418 19.196 94.418 19.4824C94.418 19.821 94.5156 20.1074 94.7109 20.3418C94.9128 20.5697 95.2122 20.791 95.6094 21.0059C96.013 21.2207 96.5143 21.4714 97.1133 21.7578C97.8424 22.1029 98.4642 22.4642 98.9785 22.8418C99.4993 23.2129 99.8997 23.6523 100.18 24.1602C100.46 24.6615 100.6 25.2865 100.6 26.0352ZM107.553 27.8223C107.878 27.8223 108.194 27.7897 108.5 27.7246C108.812 27.6595 109.122 27.5781 109.428 27.4805V29.6973C109.109 29.8405 108.712 29.9577 108.236 30.0488C107.768 30.1465 107.253 30.1953 106.693 30.1953C106.042 30.1953 105.456 30.0911 104.936 29.8828C104.421 29.668 104.014 29.3001 103.715 28.7793C103.422 28.252 103.275 27.5195 103.275 26.582V21.3184H101.85V20.0586L103.49 19.0625L104.35 16.7578H106.254V19.082H109.311V21.3184H106.254V26.582C106.254 26.9987 106.371 27.3112 106.605 27.5195C106.846 27.7214 107.162 27.8223 107.553 27.8223ZM116.117 18.8574C117.582 18.8574 118.705 19.1764 119.486 19.8145C120.268 20.4525 120.658 21.4225 120.658 22.7246V30H118.578L118.002 28.5156H117.924C117.611 28.9062 117.292 29.2253 116.967 29.4727C116.641 29.7201 116.267 29.9023 115.844 30.0195C115.421 30.1367 114.906 30.1953 114.301 30.1953C113.656 30.1953 113.077 30.0716 112.562 29.8242C112.055 29.5768 111.654 29.1992 111.361 28.6914C111.068 28.1771 110.922 27.526 110.922 26.7383C110.922 25.5794 111.329 24.7266 112.143 24.1797C112.956 23.6263 114.177 23.3203 115.805 23.2617L117.699 23.2031V22.7246C117.699 22.1517 117.549 21.7318 117.25 21.4648C116.951 21.1979 116.534 21.0645 116 21.0645C115.473 21.0645 114.955 21.1393 114.447 21.2891C113.939 21.4388 113.432 21.6276 112.924 21.8555L111.938 19.8438C112.517 19.5378 113.165 19.2969 113.881 19.1211C114.604 18.9453 115.349 18.8574 116.117 18.8574ZM117.699 24.9414L116.547 24.9805C115.583 25.0065 114.913 25.179 114.535 25.498C114.164 25.8171 113.979 26.237 113.979 26.7578C113.979 27.2135 114.112 27.5391 114.379 27.7344C114.646 27.9232 114.994 28.0176 115.424 28.0176C116.062 28.0176 116.599 27.8288 117.035 27.4512C117.478 27.0736 117.699 26.5365 117.699 25.8398V24.9414ZM129.828 18.877C129.978 18.877 130.15 18.8867 130.346 18.9062C130.548 18.9193 130.71 18.9388 130.834 18.9648L130.609 21.7578C130.512 21.7253 130.372 21.7025 130.189 21.6895C130.014 21.6699 129.861 21.6602 129.73 21.6602C129.346 21.6602 128.972 21.709 128.607 21.8066C128.249 21.9043 127.927 22.0638 127.641 22.2852C127.354 22.5 127.126 22.7865 126.957 23.1445C126.794 23.4961 126.713 23.929 126.713 24.4434V30H123.734V19.082H125.99L126.43 20.918H126.576C126.791 20.5469 127.058 20.2083 127.377 19.9023C127.702 19.5898 128.07 19.3424 128.48 19.1602C128.897 18.9714 129.346 18.877 129.828 18.877ZM140.434 26.7578C140.434 27.5 140.258 28.1283 139.906 28.6426C139.561 29.1504 139.044 29.5378 138.354 29.8047C137.663 30.0651 136.804 30.1953 135.775 30.1953C135.014 30.1953 134.359 30.1465 133.812 30.0488C133.272 29.9512 132.725 29.7884 132.172 29.5605V27.0996C132.764 27.3665 133.399 27.5879 134.076 27.7637C134.76 27.9329 135.359 28.0176 135.873 28.0176C136.452 28.0176 136.866 27.9329 137.113 27.7637C137.367 27.5879 137.494 27.36 137.494 27.0801C137.494 26.8978 137.442 26.735 137.338 26.5918C137.24 26.4421 137.025 26.276 136.693 26.0938C136.361 25.9049 135.84 25.6608 135.131 25.3613C134.447 25.0749 133.884 24.7852 133.441 24.4922C133.005 24.1992 132.68 23.8542 132.465 23.457C132.257 23.0534 132.152 22.5423 132.152 21.9238C132.152 20.9147 132.543 20.1562 133.324 19.6484C134.112 19.1341 135.163 18.877 136.479 18.877C137.156 18.877 137.8 18.9453 138.412 19.082C139.031 19.2188 139.665 19.4368 140.316 19.7363L139.418 21.8848C138.878 21.6504 138.367 21.4583 137.885 21.3086C137.41 21.1589 136.924 21.084 136.43 21.084C135.993 21.084 135.665 21.1426 135.443 21.2598C135.222 21.377 135.111 21.556 135.111 21.7969C135.111 21.9727 135.167 22.1289 135.277 22.2656C135.395 22.4023 135.616 22.5553 135.941 22.7246C136.273 22.8874 136.758 23.099 137.396 23.3594C138.015 23.6133 138.552 23.8802 139.008 24.1602C139.464 24.4336 139.815 24.7754 140.062 25.1855C140.31 25.5892 140.434 26.1133 140.434 26.7578Z" fill="white"/>
</svg>