<svg width="180" height="144" viewBox="0 0 180 144" fill="none" xmlns="http://www.w3.org/2000/svg">
    <path d="M8.57227 46.6278L83.3646 1.85204C87.4883 -0.617447 92.637 -0.617447 96.7619 1.85204L171.554 46.6278V119.606L8.57227 111.435V46.6278Z" fill="#6547FD"/>
    <path d="M157.523 130.895H22.5996V14.294H157.523V130.895Z" fill="#CFD1FF"/>
    <path d="M26.7188 19.3809C26.7188 18.6141 27.3401 17.9941 28.1055 17.9941C28.8723 17.9941 29.4936 18.6141 29.4936 19.3809C29.4936 20.1464 28.8723 20.7677 28.1055 20.7677C27.3401 20.7677 26.7188 20.1464 26.7188 19.3809Z" fill="#AE9FFF"/>
    <path d="M150.549 19.3809C150.549 18.6141 151.17 17.9941 151.936 17.9941C152.702 17.9941 153.324 18.6141 153.324 19.3809C153.324 20.1464 152.702 20.7677 151.936 20.7677C151.17 20.7677 150.549 20.1464 150.549 19.3809Z" fill="#AE9FFF"/>
    <path d="M151.935 19.5321H28.1055V19.2306H151.935V19.5321Z" fill="#AE9FFF"/>
    <path d="M27.9551 142.659V18.8295H28.2566V142.659H27.9551Z" fill="#AE9FFF"/>
    <path d="M151.832 142.659V18.8295H152.133V142.659H151.832Z" fill="#AE9FFF"/>
    <path d="M171.554 46.4279V144H8.57227V46.4279L90.0626 95.2146L171.554 46.4279Z" fill="#7B61FF"/>
    <path d="M8.57227 144L83.2217 90.4814C87.3113 87.5492 92.8139 87.5492 96.9035 90.4814L171.554 144H8.57227Z" fill="#6547FD"/>
    <path d="M114.939 30.4478H65.7462C65.0319 30.4478 64.4473 29.8632 64.4473 29.1489C64.4473 28.4345 65.0319 27.8499 65.7462 27.8499H114.939C115.654 27.8499 116.238 28.4345 116.238 29.1489C116.238 29.8632 115.654 30.4478 114.939 30.4478Z" fill="#AE9FFF"/>
    <path d="M127.612 35.6585H53.0763C52.362 35.6585 51.7773 35.0739 51.7773 34.3595C51.7773 33.6451 52.362 33.0605 53.0763 33.0605H127.612C128.326 33.0605 128.911 33.6451 128.911 34.3595C128.911 35.0739 128.326 35.6585 127.612 35.6585Z" fill="#AE9FFF"/>
    <path d="M117.945 51.8216H64.016C63.4982 51.8216 63.0762 51.3982 63.0762 50.8818C63.0762 50.3653 63.4982 49.9419 64.016 49.9419H117.945C118.461 49.9419 118.885 50.3653 118.885 50.8818C118.885 51.3982 118.461 51.8216 117.945 51.8216Z" fill="#AE9FFF"/>
    <path d="M69.4312 56.7287H54.225C53.7085 56.7287 53.2852 56.3053 53.2852 55.7888C53.2852 55.2724 53.7085 54.849 54.225 54.849H69.4312C69.9476 54.849 70.371 55.2724 70.371 55.7888C70.371 56.3053 69.9476 56.7287 69.4312 56.7287Z" fill="#AE9FFF"/>
    <path d="M92.3649 56.7287H73.9932C73.4767 56.7287 73.0547 56.3053 73.0547 55.7888C73.0547 55.2724 73.4767 54.849 73.9932 54.849H92.3649C92.8813 54.849 93.3047 55.2724 93.3047 55.7888C93.3047 56.3053 92.8813 56.7287 92.3649 56.7287Z" fill="#AE9FFF"/>
    <path d="M127.735 56.7287H95.9769C95.4605 56.7287 95.0371 56.3053 95.0371 55.7888C95.0371 55.2724 95.4605 54.849 95.9769 54.849H127.735C128.252 54.849 128.675 55.2724 128.675 55.7888C128.675 56.3053 128.252 56.7287 127.735 56.7287Z" fill="#AE9FFF"/>
    <path d="M92.4858 62.4347H62.9463C62.4299 62.4347 62.0078 62.0126 62.0078 61.4949C62.0078 60.9784 62.4299 60.5551 62.9463 60.5551H92.4858C93.0022 60.5551 93.4256 60.9784 93.4256 61.4949C93.4256 62.0126 93.0022 62.4347 92.4858 62.4347Z" fill="#AE9FFF"/>
    <path d="M119.015 62.4347H95.7491C95.2326 62.4347 94.8105 62.0126 94.8105 61.4949C94.8105 60.9784 95.2326 60.5551 95.7491 60.5551H119.015C119.532 60.5551 119.955 60.9784 119.955 61.4949C119.955 62.0126 119.532 62.4347 119.015 62.4347Z" fill="#AE9FFF"/>
    <path d="M93.2555 81.1095C92.9645 80.5642 93.3814 79.8918 93.8572 79.4474C93.671 80.0058 93.4692 80.5603 93.2555 81.1095ZM92.3773 73.1164C92.3708 72.8386 92.5176 72.3326 92.8361 72.3378C92.6919 72.6498 92.5438 72.9592 92.3878 73.2646C92.3826 73.2148 92.3786 73.1649 92.3773 73.1164ZM100.783 74.0379C99.0059 75.5125 97.1053 76.742 95.1024 77.864C95.2715 77.3332 95.413 76.7827 95.3868 76.2911C95.3514 75.6148 94.8114 75.3185 94.2714 75.038C94.1377 74.9686 94.0132 74.8952 93.8886 74.8217C94.0984 74.616 94.2058 74.3315 94.0682 74.0196C93.8401 73.5084 93.2005 73.5909 92.9842 74.0641C92.9436 74.152 92.92 74.2372 92.9108 74.321C92.823 74.2752 92.7574 74.2254 92.6998 74.1546C93.0288 73.5398 93.3394 72.9146 93.6252 72.2749C93.6894 72.1307 93.6081 71.9603 93.4915 71.8738C93.017 71.516 92.3695 71.6314 91.988 72.0809C91.5358 72.6144 91.6498 73.4258 91.8661 74.0314C91.8818 74.0746 91.8989 74.1166 91.9159 74.1585C91.4965 74.9148 91.0403 75.6515 90.5514 76.3671C90.5069 76.3213 90.4597 76.2754 90.4138 76.2295C90.2867 76.1063 90.1503 75.9464 90.0323 75.7708C90.2565 75.1875 90.3994 74.5753 90.4531 73.937C90.4767 73.6525 90.1923 73.5123 89.955 73.6001C89.297 73.8439 88.9418 74.5124 89.027 75.2006C89.0571 75.4365 89.1332 75.662 89.242 75.8704C89.0952 76.1889 88.9208 76.4982 88.715 76.7958C88.5813 76.9884 88.677 77.1851 88.833 77.2768C88.618 77.9938 88.3271 78.7291 87.8316 79.2469C87.4266 79.669 86.6715 79.9901 86.1787 79.4881C85.8667 79.1709 85.8274 78.64 85.7842 78.2206C85.6793 77.1864 85.602 76.1129 85.6387 75.0721C85.657 74.5793 85.7095 74.0785 85.8785 73.6132C85.9834 73.3235 86.1289 72.8844 86.2704 73.3838C86.3386 73.6276 86.2443 74.0078 86.2193 74.2568C86.1748 74.7012 86.8642 74.7523 86.9088 74.3092C86.9612 73.7889 87.1945 72.6944 86.6047 72.368C86.1158 72.0967 85.6662 72.486 85.4394 72.8923C84.6255 74.3538 84.9492 76.3632 85.0724 77.9519C85.1694 79.2194 85.6439 80.7753 87.2627 80.3715C88.7858 79.9927 89.3455 78.0725 89.6955 76.7512C89.7178 76.6686 89.7112 76.5939 89.685 76.5297L89.7033 76.4969C89.7663 76.5598 89.8305 76.6227 89.8947 76.687C89.9838 76.7656 90.0704 76.8508 90.153 76.9373C89.993 77.1589 89.8292 77.3791 89.6627 77.5966C89.5683 77.7199 89.5959 77.9047 89.6902 78.0187C90.2028 78.6348 91.1242 78.1773 91.1059 77.4197C91.1019 77.244 91.0587 77.0881 90.9905 76.9452C91.4716 76.2531 91.9212 75.54 92.338 74.8086C92.5556 75.021 92.8308 75.1573 93.169 75.1416C93.1913 75.1403 93.2149 75.1376 93.2385 75.135C93.4155 75.3225 93.6383 75.4784 93.8415 75.5925C94.0381 75.7039 94.2648 75.7721 94.4418 75.9162C94.7695 76.1849 94.6725 76.4917 94.6004 76.8731C94.5047 77.3751 94.3448 77.8772 94.198 78.3661C93.502 78.7658 92.8151 79.2744 92.5805 80.0753C92.3668 80.8067 92.5569 81.5761 93.1834 82.0297C93.3722 82.1673 93.6226 82.0572 93.7038 81.8579C94.0971 80.8919 94.4509 79.9101 94.7564 78.9127C94.7655 78.8812 94.776 78.8484 94.7865 78.817C95.4013 78.467 96.0448 78.159 96.6517 77.7998C98.2666 76.8443 99.7976 75.755 101.239 74.557C101.583 74.2725 101.125 73.7522 100.783 74.0379Z" fill="#7B61FF"/>
    <path d="M47.3839 138.241H19.3033C17.7343 138.241 16.4629 136.969 16.4629 135.4V127.743C16.4629 126.175 17.7343 124.903 19.3033 124.903H47.3839C48.9529 124.903 50.223 126.175 50.223 127.743V135.4C50.223 136.969 48.9529 138.241 47.3839 138.241Z" fill="#CFD1FF"/>
    <path d="M41.6716 128.218H20.5198C20.2825 128.218 20.0898 128.025 20.0898 127.789C20.0898 127.553 20.2825 127.359 20.5198 127.359H41.6716C41.9075 127.359 42.1015 127.553 42.1015 127.789C42.1015 128.025 41.9075 128.218 41.6716 128.218Z" fill="#AE9FFF"/>
    <path d="M24.2712 130.072H20.5198C20.2825 130.072 20.0898 129.878 20.0898 129.642C20.0898 129.406 20.2825 129.212 20.5198 129.212H24.2712C24.5071 129.212 24.6998 129.406 24.6998 129.642C24.6998 129.878 24.5071 130.072 24.2712 130.072Z" fill="#AE9FFF"/>
    <path d="M36.0895 130.072H25.7541C25.5182 130.072 25.3242 129.878 25.3242 129.642C25.3242 129.406 25.5182 129.212 25.7541 129.212H36.0895C36.3255 129.212 36.5182 129.406 36.5182 129.642C36.5182 129.878 36.3255 130.072 36.0895 130.072Z" fill="#AE9FFF"/>
    <path d="M41.6716 133.502H20.5198C20.2825 133.502 20.0898 133.308 20.0898 133.072C20.0898 132.836 20.2825 132.642 20.5198 132.642H41.6716C41.9075 132.642 42.1015 132.836 42.1015 133.072C42.1015 133.308 41.9075 133.502 41.6716 133.502Z" fill="#AE9FFF"/>
    <path d="M28.1969 135.354H20.5198C20.2825 135.354 20.0898 135.16 20.0898 134.924C20.0898 134.688 20.2825 134.494 20.5198 134.494H28.1969C28.4329 134.494 28.6256 134.688 28.6256 134.924C28.6256 135.16 28.4329 135.354 28.1969 135.354Z" fill="#AE9FFF"/>
    <path d="M37.5374 135.354H29.8603C29.6243 135.354 29.4316 135.16 29.4316 134.924C29.4316 134.688 29.6243 134.494 29.8603 134.494H37.5374C37.7747 134.494 37.9673 134.688 37.9673 134.924C37.9673 135.16 37.7747 135.354 37.5374 135.354Z" fill="#AE9FFF"/>
</svg>