<svg width="16" height="16" viewBox="0 0 16 16" fill="none" xmlns="http://www.w3.org/2000/svg">
    <path d="M11.6613 6.40001L3.73464 11.18C3.26797 11.46 2.66797 11.1267 2.66797 10.58V5.24668C2.66797 2.92001 5.1813 1.46668 7.2013 2.62668L10.2613 4.38668L11.6546 5.18668C12.1146 5.46001 12.1213 6.12668 11.6613 6.40001Z" fill="#039855"/>
    <path d="M12.0592 10.3066L9.35922 11.8666L6.66589 13.4199C5.69922 13.9733 4.60589 13.8599 3.81256 13.2999C3.42589 13.0333 3.47256 12.4399 3.87922 12.1999L12.3526 7.11993C12.7526 6.87993 13.2792 7.1066 13.3526 7.5666C13.5192 8.59993 13.0926 9.71326 12.0592 10.3066Z" fill="#039855"/>
</svg>
