<svg width="24" height="24" viewBox="0 0 24 24" fill="none" xmlns="http://www.w3.org/2000/svg">
    <path fill-rule="evenodd" clip-rule="evenodd" d="M14.2649 4.13719L4.30346 7.93201C2.61549 8.57505 1.5 10.1937 1.5 12C1.5 13.8063 2.61549 15.4249 4.30346 16.068L5.54447 16.5408C5.35485 16.9893 5.25 17.4823 5.25 17.9999C5.25 20.071 6.92893 21.7499 9 21.7499C10.6477 21.7499 12.0473 20.6872 12.5506 19.2097L14.2649 19.8628C13.255 17.9516 12.75 15.1565 12.75 12C12.75 8.84348 13.255 6.04837 14.2649 4.13719ZM18 20.75C17.2134 20.75 16.3808 20.2751 15.6521 18.6926C14.9218 17.1068 14.5 14.7606 14.5 12C14.5 9.23942 14.9218 6.89318 15.6521 5.30736C16.3808 3.72485 17.2134 3.25 18 3.25C18.7866 3.25 19.6192 3.72485 20.3479 5.30736C21.0782 6.89318 21.5 9.23942 21.5 12C21.5 14.7606 21.0782 17.1068 20.3479 18.6926C19.6192 20.2751 18.7866 20.75 18 20.75ZM11.1469 18.675L6.94807 17.0755C6.82082 17.3575 6.75 17.6704 6.75 17.9999C6.75 19.2425 7.75736 20.2499 9 20.2499C10.0074 20.2499 10.8602 19.5878 11.1469 18.675Z" fill="#202327"/>
</svg>