<svg width="24" height="24" viewBox="0 0 24 24" fill="none" xmlns="http://www.w3.org/2000/svg">
    <path fill-rule="evenodd" clip-rule="evenodd" d="M18 21C21 21 22.5 16.9706 22.5 12C22.5 7.02944 21 3 18 3C17.0083 3 16.025 3.18096 15.0983 3.53399L3.55346 7.93202C1.86549 8.57505 0.75 10.1937 0.75 12C0.75 13.8063 1.86549 15.425 3.55346 16.068L4.79447 16.5408C4.60485 16.9893 4.5 17.4823 4.5 17.9999C4.5 20.071 6.17893 21.7499 8.25 21.7499C9.89774 21.7499 11.2973 20.6872 11.8006 19.2097L15.0983 20.466C16.025 20.819 17.0083 21 18 21ZM15.9875 17.7365C16.6121 19.093 17.3257 19.5 18 19.5C18.6743 19.5 19.3879 19.093 20.0125 17.7365C20.6385 16.3773 21 14.3662 21 12C21 9.63379 20.6385 7.62273 20.0125 6.26345C19.3879 4.90702 18.6743 4.5 18 4.5C17.3257 4.5 16.6121 4.90702 15.9875 6.26345C15.3615 7.62273 15 9.63379 15 12C15 14.3662 15.3615 16.3773 15.9875 17.7365ZM13.5 12C13.5 14.6903 13.9394 17.105 14.8183 18.7542L4.08745 14.6663C2.98112 14.2448 2.25 13.1839 2.25 12C2.25 10.8161 2.98112 9.75521 4.08745 9.33375L14.8183 5.2458C13.9394 6.89503 13.5 9.30966 13.5 12ZM10.3969 18.675L6.19807 17.0755C6.07082 17.3575 6 17.6704 6 17.9999C6 19.2425 7.00736 20.2499 8.25 20.2499C9.25742 20.2499 10.1102 19.5878 10.3969 18.675Z" fill="#202327"/>
</svg>