<svg width="316" height="252" viewBox="0 0 316 252" fill="none" xmlns="http://www.w3.org/2000/svg">
    <path d="M271.11 240.841C298.099 223.538 299.863 139.638 247.666 120C195.47 100.363 205.14 50.8122 161.227 13.7701C121.199 -19.9945 54.982 8.62419 32.9244 96.4331C17.1974 159.046 35.5506 237.59 48.0733 240.841H271.11Z" fill="#EBF3FA"/>
    <path d="M231.422 239.162C231.422 239.162 258.215 225.954 262.825 219.068C267.436 212.182 260.659 211.786 260.659 211.786C260.659 211.786 272.617 200.163 270.934 195.267C269.251 190.371 262.974 195.051 262.974 195.051C262.974 195.051 270.748 177.751 267.121 176.032C260.361 172.828 250.898 191.236 250.898 191.236C250.898 191.236 252.925 183.239 248.285 183.499C241.271 183.891 241.562 201.978 241.562 201.978C241.562 201.978 240.771 195.044 236.543 197.295C228.955 201.342 231.422 239.162 231.422 239.162Z" fill="#87C979"/>
    <path d="M235.884 194.527C240.47 193.149 241.535 198.244 241.535 198.244C241.535 198.244 241.268 183.911 248.295 183.519C252.946 183.259 250.907 191.257 250.907 191.257C250.907 191.257 260.371 172.845 267.131 176.052L231.402 238.898C231.138 234.478 229.276 196.527 235.884 194.527Z" fill="#A8D29F"/>
    <path d="M232.113 239.327C232.113 239.327 254.029 242.03 259.704 239.621C265.379 237.212 261.313 234.215 261.313 234.215C261.313 234.215 273.481 231.823 274.437 228.086C275.394 224.349 269.56 224.707 269.56 224.707C269.56 224.707 281.437 217.074 279.875 214.53C276.965 209.8 263.574 217.422 263.574 217.422C263.574 217.422 268.096 213.26 265.088 211.533C260.556 208.931 253.383 220.318 253.383 220.318C253.383 220.318 253.829 217.507 250.277 217.196C243.906 216.648 232.113 239.327 232.113 239.327Z" fill="#87C979"/>
    <path d="M249.964 216.463C253.516 216.774 253.381 220.328 253.381 220.328C253.381 220.328 260.553 208.928 265.086 211.543C268.094 213.27 263.572 217.432 263.572 217.432C263.572 217.432 276.963 209.796 279.873 214.54L232.047 239.206C233.669 236.364 244.012 215.939 249.964 216.463Z" fill="#A8D29F"/>
    <path d="M288.886 240.564C288.886 240.057 288.615 239.645 288.281 239.645H26.1009C25.8817 239.671 25.6814 239.782 25.5426 239.953C25.4037 240.125 25.3373 240.344 25.3573 240.564C25.3364 240.784 25.4025 241.003 25.5415 241.175C25.6805 241.347 25.8813 241.457 26.1009 241.483H288.281C288.619 241.483 288.886 241.074 288.886 240.564Z" fill="#3E3D51"/>
    <path d="M90.1782 239.219C90.1782 239.219 55.2531 222.004 49.2435 213.026C43.234 204.049 52.0692 203.538 52.0692 203.538C52.0692 203.538 36.4809 188.381 38.6744 182.002C40.868 175.623 49.0509 181.718 49.0509 181.718C49.0509 181.718 38.911 159.171 43.643 156.931C52.4478 152.755 64.7947 176.751 64.7947 176.751C64.7947 176.751 62.1415 166.324 68.2017 166.665C77.3276 167.176 76.9659 190.756 76.9659 190.756C76.9659 190.756 77.9799 181.715 83.5061 184.651C93.4026 189.922 90.1782 239.219 90.1782 239.219Z" fill="#87C979"/>
    <path d="M85.3783 182.181C80.5584 179.333 76.881 186.033 76.881 186.033C76.881 186.033 77.3441 167.176 68.2013 166.665C62.1411 166.328 64.7943 176.751 64.7943 176.751C64.7943 176.751 52.4474 152.762 43.6426 156.931L90.2183 238.837C90.5496 233.117 91.7799 185.962 85.3783 182.181Z" fill="#A8D29F"/>
    <path d="M89.2762 239.439C89.2762 239.439 60.7122 242.983 53.3135 239.824C45.9148 236.665 51.2179 232.759 51.2179 232.759C51.2179 232.759 35.3322 229.637 34.112 224.768C32.8918 219.899 40.4663 220.375 40.4663 220.375C40.4663 220.375 24.9827 210.428 27.0208 207.11C30.8131 200.93 48.2672 210.881 48.2672 210.881C48.2672 210.881 42.376 205.475 46.2933 203.208C52.2049 199.829 61.5538 214.672 61.5538 214.672C61.5538 214.672 60.9725 211.009 65.6098 210.617C73.911 209.874 89.2762 239.439 89.2762 239.439Z" fill="#87C979"/>
    <path d="M65.5814 208.13C60.9509 208.536 61.5525 214.668 61.5525 214.668C61.5525 214.668 53.275 198.818 46.265 202.978C42.3814 205.282 47.7691 210.668 47.7691 210.668C47.7691 210.668 30.8118 200.927 27.0195 207.107L89.3628 239.276C87.2436 235.573 73.3418 207.448 65.5814 208.13Z" fill="#A8D29F"/>
    <path d="M235.879 212.54H84.7951C79.0255 212.54 74.3477 208.468 74.3477 203.444V198.038C74.3477 193.013 79.0255 188.942 84.7951 188.942H235.879C228.967 195.517 228.849 205.566 235.602 212.256L235.879 212.54Z" fill="#AFCDFB"/>
    <path d="M233.763 191.645H157.737C152.502 191.645 148.273 195.72 148.273 200.741C148.273 205.765 152.515 209.837 157.737 209.837H233.786C232.047 207.123 231.12 203.968 231.116 200.744C231.112 197.521 232.03 194.364 233.763 191.645Z" fill="#FBF3FF"/>
    <path d="M258.463 211.296H68.1443C62.2328 211.296 57.4434 215.804 57.4434 221.365V229.832C57.4434 235.391 62.2328 239.898 68.1443 239.898H258.463L258.365 239.8C250.233 231.829 250.266 219.22 258.463 211.296Z" fill="url(#paint0_linear_1_16302)"/>
    <path d="M255.092 215.53H153.355C147.444 215.53 142.654 220.037 142.654 225.599C142.654 231.157 147.444 235.664 153.355 235.664H255.092C253.258 232.627 252.288 229.146 252.288 225.597C252.288 222.049 253.258 218.568 255.092 215.53Z" fill="#FBF3FF"/>
    <path d="M196.431 225.649H188.657C187.85 225.649 187.077 225.97 186.506 226.54C185.936 227.11 185.615 227.884 185.615 228.69V228.961H196.404L196.431 225.649Z" fill="#3E3D51"/>
    <path d="M188.984 225.66C190.84 225.66 193.612 227.231 195.173 229.167L213.59 252.001H224.406L206.891 230.285C204.83 227.731 201.176 225.66 198.729 225.663L188.984 225.66Z" fill="#F99746"/>
    <path d="M68.7348 72.5959C68.7025 72.6961 68.6439 72.7859 68.5652 72.856C68.4865 72.926 68.3905 72.9737 68.2871 72.9942C68.1795 73.0094 68.0698 72.9945 67.9702 72.951C67.8706 72.9076 67.7851 72.8373 67.7231 72.748L65.3147 69.2661H61.0843C60.9756 69.2667 60.8689 69.2368 60.7764 69.1798C60.6838 69.1229 60.609 69.0411 60.5605 68.9439C60.5124 68.8463 60.4923 68.7374 60.5026 68.6291C60.5129 68.5208 60.5531 68.4175 60.6187 68.3307L63.1883 64.9652L61.8453 60.9373C61.8126 60.8341 61.8091 60.7238 61.8351 60.6188C61.8612 60.5137 61.9159 60.4179 61.9931 60.342C62.0705 60.2659 62.1678 60.213 62.2738 60.1893C62.3798 60.1655 62.4904 60.172 62.5929 60.2078L66.586 61.6086L70.0061 59.1157C70.0931 59.0501 70.197 59.0106 70.3056 59.0018C70.4143 58.9931 70.5231 59.0156 70.6194 59.0665C70.7161 59.1173 70.7966 59.1941 70.852 59.2882C70.9074 59.3823 70.9353 59.4899 70.9328 59.5991L70.8343 63.8284L74.2679 66.3123C74.3565 66.379 74.4242 66.4696 74.4631 66.5734C74.502 66.6773 74.5103 66.7901 74.4872 66.8986C74.466 67.003 74.4169 67.0997 74.3452 67.1785C74.2735 67.2573 74.1818 67.3152 74.0799 67.3461L70.0196 68.5635L68.7348 72.5959Z" fill="url(#paint1_linear_1_16302)"/>
    <path d="M180.067 32.4704C180.366 31.6791 180.261 28.8492 184.107 26.1309C185.688 25.0242 186.985 24.0825 187.336 22.7913C187.944 20.5585 185.646 19.4906 183.362 19.5003C182.793 19.5005 182.247 19.2739 181.839 18.8687C181.431 18.4635 181.194 17.9117 181.178 17.3305C181.16 16.7409 181.369 16.1676 181.761 15.7344C182.152 15.3012 182.695 15.0429 183.272 15.0151C184.78 14.9445 186.29 15.1215 187.744 15.5394C192.649 16.9325 194.126 20.3352 193.271 23.4903C192.488 26.4028 190.223 27.7813 188.381 28.9803C185.271 30.9947 185.275 33.2422 185.009 33.8732L180.067 32.4704ZM177.692 37.4409C177.791 36.979 177.982 36.5432 178.254 36.1611C178.526 35.7791 178.873 35.4593 179.273 35.2222C179.673 34.9851 180.117 34.8359 180.577 34.7842C181.036 34.7324 181.501 34.7792 181.942 34.9217C183.946 35.4896 184.858 37.305 184.345 39.3292C184.245 39.7925 184.052 40.2295 183.778 40.612C183.503 40.9944 183.154 41.3139 182.751 41.5499C182.349 41.7858 181.902 41.933 181.441 41.9819C180.979 42.0308 180.513 41.9804 180.071 41.8338C179.62 41.7266 179.196 41.5241 178.825 41.2392C178.455 40.9544 178.147 40.5936 177.921 40.1799C177.696 39.7663 177.557 39.3089 177.514 38.8372C177.471 38.3655 177.526 37.8899 177.673 37.4409H177.692Z" fill="#F99746"/>
    <path d="M269.717 66.8787L271.015 69.0344C271.048 69.0843 271.095 69.1244 271.149 69.1506C271.203 69.1767 271.263 69.188 271.323 69.1831C271.383 69.1783 271.44 69.1576 271.49 69.1231C271.539 69.0887 271.578 69.0417 271.603 68.9871L272.526 66.6421L274.98 66.0745C275.038 66.058 275.09 66.0263 275.132 65.9828C275.173 65.9393 275.202 65.8855 275.216 65.827C275.23 65.7684 275.228 65.7073 275.21 65.6498C275.192 65.5923 275.159 65.5406 275.115 65.5001L273.171 63.8985L273.388 61.3915C273.39 61.3314 273.376 61.2718 273.348 61.2188C273.32 61.1658 273.278 61.1213 273.226 61.09C273.175 61.0587 273.116 61.0416 273.056 61.0405C272.996 61.0395 272.937 61.0545 272.884 61.084L270.758 62.4355L268.44 61.4523C268.383 61.4319 268.322 61.4268 268.263 61.4377C268.204 61.4486 268.149 61.4751 268.104 61.5143C268.058 61.5535 268.024 61.6041 268.005 61.6609C267.985 61.7177 267.981 61.7786 267.993 61.8375L268.625 64.277L266.973 66.1759C266.935 66.2233 266.91 66.2801 266.902 66.3403C266.893 66.4005 266.901 66.4618 266.925 66.5179C266.948 66.5739 266.987 66.6225 267.035 66.6587C267.084 66.6948 267.142 66.7171 267.202 66.7232L269.717 66.8787Z" fill="url(#paint2_linear_1_16302)"/>
    <path d="M210.593 34.7596L207.75 32.739L208.541 29.2622L209.464 29.4717L208.815 32.3336L211.755 34.4183L210.241 38.1553L213.557 39.9427L212.049 43.2404L210.914 43.4398L212.326 40.3549L209.045 38.5844L210.593 34.7596Z" fill="url(#paint3_linear_1_16302)"/>
    <path d="M79.6905 49.2648L81.4515 50.8123L83.6383 49.8561L85.4872 51.7313L87.505 49.9912L89.6884 52.0185L91.7435 50.6434L94.1669 52.2551L93.5585 53.1707L91.7468 51.9679L89.5769 53.4174L87.478 51.4644L85.4263 53.2349L83.3882 51.1671L81.2487 52.103L79.6196 50.667L78.3419 51.5759L77.7031 50.6805L79.6905 49.2648Z" fill="#8282A8"/>
    <path d="M278.309 82.1104C278.889 82.6633 279.353 83.3251 279.676 84.0579C279.999 84.7907 280.174 85.58 280.191 86.3805C280.208 87.181 280.066 87.977 279.775 88.7228C279.483 89.4685 279.047 90.1494 278.492 90.7264C277.939 91.3053 277.276 91.7693 276.543 92.0917C275.81 92.4141 275.02 92.5886 274.22 92.6053C273.419 92.6219 272.623 92.4803 271.877 92.1886C271.131 91.8969 270.45 91.4609 269.873 90.9055C269.294 90.3523 268.83 89.6903 268.507 88.9574C268.185 88.2245 268.01 87.4351 267.994 86.6346C267.977 85.8341 268.119 85.0382 268.41 84.2926C268.702 83.5469 269.138 82.8662 269.694 82.2895C270.247 81.7111 270.909 81.2475 271.642 80.9254C272.375 80.6033 273.164 80.4289 273.964 80.4123C274.765 80.3956 275.561 80.537 276.306 80.8284C277.052 81.1198 277.733 81.5555 278.309 82.1104Z" fill="#ECE1EF"/>
    <path d="M278.104 91.3551L273.291 92.8328L271.778 97.6494C271.752 97.7381 271.701 97.8175 271.632 97.8785C271.562 97.9395 271.477 97.9795 271.386 97.994C271.294 98.0084 271.201 97.9968 271.116 97.9603C271.031 97.9238 270.958 97.864 270.906 97.7878L268.013 93.6565L262.993 93.7068C262.901 93.7062 262.812 93.6803 262.734 93.6318C262.656 93.5833 262.593 93.5143 262.552 93.4322C262.511 93.3502 262.494 93.2584 262.502 93.167C262.51 93.0756 262.543 92.9883 262.597 92.9146L265.622 88.8839L264.022 84.0987C263.99 84.011 263.984 83.9159 264.004 83.8247C264.024 83.7335 264.07 83.65 264.136 83.5839C264.201 83.5179 264.285 83.472 264.376 83.4518C264.467 83.4316 264.562 83.4379 264.649 83.4699L269.419 85.1048L273.46 82.0991C273.533 82.0435 273.621 82.0099 273.713 82.0019C273.804 81.9939 273.896 82.0119 273.978 82.0539C274.06 82.0959 274.128 82.1602 274.176 82.2393C274.223 82.3185 274.247 82.4094 274.244 82.5015L274.169 87.532L278.267 90.4559C278.351 90.5077 278.417 90.5836 278.458 90.6738C278.498 90.764 278.51 90.8642 278.492 90.9614C278.474 91.0585 278.428 91.1481 278.359 91.2184C278.289 91.2886 278.201 91.3362 278.104 91.3551Z" fill="#F99746"/>
    <path d="M99.0979 30.6271C95.6808 32.5598 96.3568 37.7227 100.166 38.7363C100.849 38.9267 101.44 39.356 101.832 39.9459L103.184 41.9732C103.365 42.2384 103.639 42.4264 103.952 42.5001C104.265 42.5739 104.594 42.5282 104.874 42.3719L106.169 41.6387C106.45 41.4789 106.661 41.2193 106.76 40.9115C106.859 40.6037 106.838 40.2699 106.703 39.9763C105.669 37.7531 105.124 37.0097 105.496 35.7156C106.601 31.9381 102.529 28.7012 99.0979 30.6271Z" fill="#F99746"/>
    <path d="M103.034 40.1993C102.078 38.3241 100.983 36.3711 100.668 35.8271C98.6405 36.7056 98.6134 34.2188 99.9012 34.7594C100.26 34.9323 100.557 35.2105 100.753 35.5568C101.422 35.2386 102.023 34.7946 102.524 34.2492C102.313 33.8893 102.186 33.4861 102.152 33.07C102.183 32.526 102.73 32.1814 103.139 32.5463C103.216 32.6176 103.278 32.7038 103.321 32.7996C103.364 32.8954 103.387 32.9989 103.389 33.1038C103.389 33.5431 103.051 33.9519 102.774 34.2864C103.45 35.8069 104.187 37.3273 104.947 38.8039L104.758 38.9019C104.011 37.4456 103.291 35.9555 102.619 34.4587C102.117 34.9895 101.523 35.4235 100.864 35.7393C101.284 36.4387 102.342 38.341 103.23 40.1013L103.034 40.1993ZM99.4855 35.7258C99.6554 35.79 99.8373 35.816 100.018 35.802C100.2 35.788 100.375 35.7343 100.533 35.6447C100.359 35.352 100.103 35.1169 99.7964 34.9689C99.1103 34.6817 99.0596 35.5062 99.4855 35.7258ZM102.338 33.0802C102.368 33.431 102.476 33.7706 102.656 34.0735C102.925 33.8154 103.101 33.4756 103.156 33.1072C103.156 32.8605 102.953 32.5835 102.71 32.6071C102.69 32.6105 102.358 32.8707 102.345 33.0802H102.338Z" fill="#FBF3FF"/>
    <path d="M101.797 39.919L101.831 39.9697L103.183 41.997C103.364 42.2622 103.638 42.4501 103.95 42.5239C104.263 42.5977 104.592 42.5519 104.873 42.3957L106.167 41.6625C106.448 41.5026 106.659 41.2431 106.758 40.9352C106.857 40.6274 106.837 40.2937 106.701 40.0001C106.238 39.0101 105.876 38.3107 105.65 37.7329L101.797 39.919Z" fill="#8282A8"/>
    <path d="M95.7912 29.9683L93.9761 28.3837C93.8921 28.3101 93.8406 28.2062 93.833 28.0947C93.8254 27.9833 93.8623 27.8733 93.9356 27.789C94.0092 27.705 94.1132 27.6535 94.2246 27.6459C94.3361 27.6383 94.4461 27.6752 94.5305 27.7485L96.3489 29.3331C96.4329 29.4067 96.4844 29.5106 96.492 29.6221C96.4996 29.7335 96.4627 29.8435 96.3894 29.9278C96.3529 29.9699 96.3084 30.0044 96.2586 30.0292C96.2087 30.0541 96.1543 30.0688 96.0987 30.0726C96.0431 30.0763 95.9873 30.0691 95.9345 30.0512C95.8817 30.0333 95.833 30.0051 95.7912 29.9683Z" fill="#B1B1DE"/>
    <path d="M95.1799 35.6415L92.7362 36.3173C92.6277 36.3463 92.5122 36.3314 92.4147 36.2757C92.3172 36.22 92.2457 36.1281 92.2157 36.02C92.1866 35.9116 92.2016 35.796 92.2573 35.6986C92.313 35.6012 92.4049 35.5296 92.5131 35.4996L94.9602 34.8238C95.0137 34.8091 95.0696 34.805 95.1246 34.812C95.1797 34.819 95.2328 34.8368 95.2809 34.8645C95.329 34.8921 95.3712 34.9291 95.4049 34.9731C95.4386 35.0172 95.4632 35.0675 95.4773 35.1212C95.4922 35.1749 95.4962 35.231 95.4893 35.2863C95.4824 35.3415 95.4646 35.3949 95.4369 35.4432C95.4093 35.4916 95.3723 35.534 95.3282 35.568C95.2841 35.6021 95.2337 35.6271 95.1799 35.6415Z" fill="#B1B1DE"/>
    <path d="M95.5014 43.7708C95.4006 43.7219 95.3229 43.6354 95.285 43.53C95.2472 43.4245 95.252 43.3085 95.2986 43.2065C95.6716 42.416 96.1186 41.6626 96.6337 40.9563C96.6999 40.8658 96.7992 40.8051 96.91 40.7874C97.0207 40.7697 97.134 40.7964 97.2252 40.8616C97.3151 40.9284 97.3751 41.0279 97.3922 41.1386C97.4093 41.2492 97.3821 41.3622 97.3164 41.4529C96.8327 42.1163 96.4139 42.8246 96.0658 43.5681C96.0175 43.6695 95.9311 43.7477 95.8254 43.7856C95.7196 43.8236 95.6032 43.8183 95.5014 43.7708Z" fill="#B1B1DE"/>
    <path d="M101.609 27.7111C101.497 27.7197 101.387 27.6846 101.301 27.6133C101.215 27.5421 101.161 27.4402 101.149 27.3293C101.05 26.2229 100.835 25.13 100.507 24.0688C100.474 23.9617 100.485 23.846 100.538 23.7471C100.59 23.6483 100.68 23.5744 100.787 23.5417C100.894 23.509 101.01 23.5202 101.109 23.5728C101.208 23.6253 101.282 23.715 101.314 23.8221C101.659 24.9385 101.886 26.0879 101.99 27.2516C101.996 27.3069 101.99 27.3626 101.973 27.4156C101.957 27.4686 101.93 27.5178 101.895 27.5605C101.859 27.6031 101.816 27.6384 101.767 27.6643C101.718 27.6901 101.664 27.706 101.609 27.7111Z" fill="#B1B1DE"/>
    <path d="M105.172 29.8603C105.138 29.8161 105.113 29.7656 105.099 29.7118C105.085 29.658 105.082 29.602 105.09 29.547C105.098 29.4919 105.117 29.439 105.145 29.3913C105.174 29.3436 105.212 29.302 105.256 29.269L107.447 27.6201C107.491 27.5864 107.541 27.5618 107.595 27.5478C107.649 27.5338 107.705 27.5307 107.76 27.5385C107.815 27.5464 107.868 27.5651 107.916 27.5936C107.963 27.6222 108.005 27.6599 108.038 27.7046C108.104 27.7945 108.133 27.9069 108.117 28.0176C108.101 28.1282 108.042 28.2282 107.953 28.2959L105.763 29.9414C105.674 30.009 105.562 30.0384 105.451 30.0232C105.34 30.008 105.24 29.9494 105.172 29.8603Z" fill="#B1B1DE"/>
    <path d="M111.63 34.9249C111.593 34.939 111.555 34.9481 111.515 34.9519C110.572 35.0235 109.624 34.9952 108.686 34.8674C108.631 34.8604 108.578 34.8424 108.53 34.8145C108.481 34.7866 108.439 34.7495 108.406 34.7051C108.372 34.6607 108.347 34.6101 108.334 34.5562C108.32 34.5023 108.317 34.4461 108.325 34.391C108.332 34.3362 108.35 34.2834 108.377 34.2356C108.405 34.1878 108.442 34.146 108.486 34.1126C108.53 34.0793 108.58 34.0551 108.634 34.0414C108.688 34.0277 108.743 34.0248 108.798 34.0329C109.677 34.1521 110.567 34.1771 111.451 34.1072C111.563 34.0988 111.673 34.135 111.758 34.2078C111.843 34.2807 111.895 34.3842 111.904 34.4958C111.912 34.5874 111.889 34.6791 111.84 34.7566C111.79 34.8342 111.717 34.8933 111.63 34.9249Z" fill="#B1B1DE"/>
    <path d="M240.356 33.8539L239.271 35.8542C236.655 40.6541 233.203 44.9484 229.077 48.5349L228.617 48.937C228.617 48.937 229.503 52.9916 233.565 52.2652C236.704 47.4655 240.428 43.0753 244.652 39.1959L246.24 37.9018L240.356 33.8539Z" fill="#F99746"/>
    <path d="M246.243 37.8983C246.003 38.1855 244.496 37.5131 242.863 36.3947C241.231 35.2763 240.109 34.1309 240.349 33.8403C240.589 33.5498 242.113 34.2255 243.729 35.3439C245.344 36.4623 246.483 37.6077 246.243 37.8983Z" fill="#D6D6ED"/>
    <path d="M246.236 37.9053C246.236 37.9053 242.518 35.8206 241.822 34.6853L241.379 35.2461C241.854 35.66 242.353 36.0459 242.873 36.4017C244.485 37.4998 245.969 38.1722 246.236 37.9053Z" fill="#8282A8"/>
    <path d="M239.48 44.4804C239.004 44.6392 236.888 45.1561 235.019 42.2943C234.779 42.5984 234.535 42.9025 234.285 43.1998C235.566 44.9703 236.965 45.4974 237.942 45.6224C238.098 45.6427 238.304 45.663 238.459 45.6663C238.795 45.2699 239.135 44.8746 239.48 44.4804Z" fill="url(#paint4_linear_1_16302)"/>
    <path d="M235.719 42.3822L234.418 37.7296L233.756 39.1453L232.248 38.9155L234.871 42.8687L235.719 42.3822Z" fill="url(#paint5_linear_1_16302)"/>
    <path d="M234.682 43.1793L231.031 42.5576L231.883 43.5476L231.035 44.3112L234.567 44.0173L234.682 43.1793Z" fill="url(#paint6_linear_1_16302)"/>
    <path d="M234.036 44.0749C233.715 43.2876 234.174 42.3652 235.07 42.0104C235.966 41.6556 236.949 42.0104 237.274 42.7943C237.598 43.5782 237.135 44.5074 236.24 44.8587C235.842 45.0374 235.391 45.0556 234.98 44.9095C234.569 44.7634 234.231 44.4644 234.036 44.0749Z" fill="url(#paint7_linear_1_16302)"/>
    <path d="M235.991 68.6061L239.228 67.5636L241.501 72.5151L246.428 71.5697L248.743 75L250.5 73.8424L247.404 69.2485L242.742 70.1515L240.371 65L235.5 66.5636L235.991 68.6061Z" fill="#D6D6ED"/>
    <path d="M254.606 164.638L256.388 164.057L257.638 166.818L260.349 166.291L261.623 168.203L262.59 167.558L260.886 165L258.321 165.5L257.016 162.628L254.336 163.5L254.606 164.638Z" fill="#F99746"/>
    <path d="M150.406 26.1436C150.232 27.003 149.891 27.8198 149.402 28.5473C148.912 29.2749 148.284 29.8989 147.553 30.3836C146.823 30.8684 146.004 31.2045 145.143 31.3727C144.282 31.5409 143.397 31.5379 142.537 31.3639C141.677 31.1905 140.86 30.8493 140.132 30.3599C139.404 29.8704 138.779 29.2423 138.294 28.5114C137.809 27.7806 137.473 26.9613 137.305 26.1005C137.137 25.2396 137.141 24.3542 137.315 23.4946C137.489 22.6351 137.831 21.8182 138.32 21.0907C138.81 20.3631 139.438 19.7392 140.169 19.2544C140.9 18.7696 141.72 18.4336 142.581 18.2654C143.442 18.0973 144.327 18.1003 145.187 18.2743C146.923 18.6262 148.448 19.6529 149.427 21.1286C150.405 22.6044 150.757 24.4083 150.406 26.1436Z" fill="#B1B1DE"/>
    <path d="M140.149 25.1469C140.056 25.6066 140.054 26.0801 140.144 26.5405C140.234 27.0009 140.414 27.439 140.673 27.83C140.932 28.2209 141.266 28.557 141.655 28.819C142.044 29.081 142.481 29.2638 142.941 29.3569C143.868 29.5433 144.83 29.3549 145.618 28.833C146.405 28.311 146.953 27.4982 147.143 26.5728L140.149 25.1469Z" fill="#EFEFEF"/>
    <path d="M50.8922 101.795C50.3515 101.072 49.7498 100.704 49.111 100.704C45.4742 100.704 44.6562 111.415 44.6562 115.169C44.6562 119.446 45.1294 123.129 46.0285 125.812C46.8532 128.282 47.9585 129.644 49.1347 129.644C50.3853 129.644 51.5277 128.079 52.3524 125.251C54.4581 117.99 53.6807 105.502 50.8922 101.795ZM51.6291 125.156C50.926 127.522 49.9864 128.907 49.111 128.907C48.2356 128.907 47.296 127.505 46.593 125.156C45.8088 122.538 45.3795 118.99 45.3795 115.169C45.3795 111.347 45.8088 107.799 46.593 105.177C47.296 102.812 48.2356 101.43 49.111 101.43C49.9864 101.43 50.926 102.829 51.6291 105.177C52.4098 107.799 52.8425 111.344 52.8425 115.169C52.8425 118.993 52.4098 122.531 51.6291 125.156Z" fill="url(#paint8_linear_1_16302)"/>
    <path d="M61.4719 119.169C58.5618 114.344 45.1197 107.164 38.9952 107.164C37.5824 107.164 36.663 107.549 36.2574 108.313C35.8518 109.077 36.0073 109.918 36.636 110.959C39.5529 115.797 52.9781 122.997 59.0789 122.997C60.5052 122.997 61.4449 122.602 61.8437 121.825C62.2256 121.105 62.1006 120.21 61.4719 119.169ZM61.286 121.365C61.0663 121.906 60.3092 122.193 59.0992 122.193C54.8573 122.193 45.2109 118.585 39.1338 112.709C36.8151 110.469 36.5954 109.33 36.8219 108.779C37.0483 108.229 37.7919 107.955 38.9986 107.955C41.2564 107.955 44.7851 108.928 48.432 110.56C52.5556 112.405 56.2972 114.844 58.9707 117.429C61.2928 119.673 61.5091 120.808 61.2928 121.365H61.286Z" fill="url(#paint9_linear_1_16302)"/>
    <path d="M61.5976 108.158C61.1751 107.381 60.2456 106.985 58.8666 106.985C56.0917 106.985 51.3699 108.644 46.5433 111.314C41.7167 113.983 37.8839 117.058 36.5251 119.328C35.9066 120.369 35.7815 121.251 36.1567 121.94C36.5691 122.7 37.4783 123.085 38.8607 123.085C44.9176 123.085 58.3022 115.757 61.236 110.834C61.8613 109.773 61.9863 108.874 61.5976 108.158ZM54.8141 115.774C50.5283 118.764 45.5158 121.085 41.4092 121.977C40.5675 122.173 39.7077 122.281 38.8438 122.298C37.7588 122.298 37.049 122.051 36.7955 121.582C36.542 121.112 36.6569 120.494 37.1335 119.707C38.3706 117.632 42.0446 114.638 46.4926 112.121C51.2753 109.398 55.9193 107.773 58.9173 107.773C60.2963 107.773 61.0332 108.134 61.1109 108.847C61.2563 110.297 58.7889 113.016 54.8141 115.774Z" fill="url(#paint10_linear_1_16302)"/>
    <path d="M51.4391 114.733C51.4391 115.347 51.1952 115.936 50.761 116.37C50.3268 116.804 49.7379 117.047 49.1239 117.047C48.5098 117.047 47.9209 116.804 47.4867 116.37C47.0525 115.936 46.8086 115.347 46.8086 114.733C46.8086 114.119 47.0525 113.53 47.4867 113.096C47.9209 112.662 48.5098 112.418 49.1239 112.418C49.7379 112.418 50.3268 112.662 50.761 113.096C51.1952 113.53 51.4391 114.119 51.4391 114.733Z" fill="url(#paint11_linear_1_16302)"/>
    <path d="M48.4492 103.883C48.4492 104.344 48.2662 104.786 47.9404 105.111C47.6146 105.437 47.1727 105.62 46.7119 105.62C46.2512 105.62 45.8093 105.437 45.4835 105.111C45.1577 104.786 44.9746 104.344 44.9746 103.883C44.9746 103.655 45.0196 103.429 45.1069 103.219C45.1942 103.008 45.3221 102.817 45.4835 102.655C45.6448 102.494 45.8363 102.366 46.0471 102.279C46.2579 102.192 46.4838 102.147 46.7119 102.147C46.9401 102.147 47.166 102.192 47.3767 102.279C47.5875 102.366 47.779 102.494 47.9404 102.655C48.1017 102.817 48.2297 103.008 48.317 103.219C48.4043 103.429 48.4492 103.655 48.4492 103.883Z" fill="url(#paint12_linear_1_16302)"/>
    <path d="M53.8034 124.474C53.8034 124.858 53.651 125.225 53.3797 125.497C53.1084 125.768 52.7404 125.92 52.3568 125.92C51.9731 125.92 51.6051 125.768 51.3338 125.497C51.0626 125.225 50.9102 124.858 50.9102 124.474C50.9102 124.09 51.0626 123.723 51.3338 123.451C51.6051 123.18 51.9731 123.028 52.3568 123.028C52.7404 123.028 53.1084 123.18 53.3797 123.451C53.651 123.723 53.8034 124.09 53.8034 124.474Z" fill="url(#paint13_linear_1_16302)"/>
    <path d="M38.2713 119.024C39.0964 119.024 39.7652 118.355 39.7652 117.531C39.7652 116.706 39.0964 116.037 38.2713 116.037C37.4462 116.037 36.7773 116.706 36.7773 117.531C36.7773 118.355 37.4462 119.024 38.2713 119.024Z" fill="url(#paint14_linear_1_16302)"/>
    <path d="M61.9079 110.851C61.9079 111.012 61.8761 111.172 61.8142 111.321C61.7524 111.47 61.6618 111.606 61.5475 111.72C61.4333 111.834 61.2977 111.925 61.1484 111.987C60.9991 112.049 60.8391 112.08 60.6776 112.08C60.516 112.08 60.356 112.049 60.2068 111.987C60.0575 111.925 59.9219 111.834 59.8076 111.72C59.6934 111.606 59.6028 111.47 59.5409 111.321C59.4791 111.172 59.4473 111.012 59.4473 110.851C59.4473 110.524 59.5769 110.212 59.8076 109.981C60.0384 109.75 60.3513 109.621 60.6776 109.621C61.0039 109.621 61.3168 109.75 61.5475 109.981C61.7783 110.212 61.9079 110.524 61.9079 110.851Z" fill="url(#paint15_linear_1_16302)"/>
    <path d="M43.6911 108.273C43.6911 108.599 43.5615 108.912 43.3307 109.142C43.1 109.373 42.7871 109.502 42.4608 109.502C42.1345 109.502 41.8215 109.373 41.5908 109.142C41.3601 108.912 41.2305 108.599 41.2305 108.273C41.2305 108.111 41.2623 107.951 41.3242 107.802C41.3861 107.653 41.4767 107.518 41.591 107.404C41.7053 107.29 41.841 107.2 41.9902 107.138C42.1395 107.077 42.2994 107.046 42.4608 107.046C42.6222 107.046 42.7821 107.077 42.9313 107.138C43.0806 107.2 43.2162 107.29 43.3305 107.404C43.4448 107.518 43.5355 107.653 43.5973 107.802C43.6592 107.951 43.6911 108.111 43.6911 108.273Z" fill="url(#paint16_linear_1_16302)"/>
    <path d="M284.886 135.316L279.084 137.213L279.411 138.211L285.213 136.315L284.886 135.316Z" fill="#8282A8"/>
    <path d="M274.436 123.766L271.391 129.426L272.316 129.923L275.362 124.264L274.436 123.766Z" fill="#8282A8"/>
    <path d="M276.569 147.837L275.77 148.52L280.129 153.618L280.928 152.936L276.569 147.837Z" fill="#8282A8"/>
    <path d="M276.508 148.268L265.949 151.119L257.973 144.497L258.645 143.689L266.199 149.964L275.653 147.409L278.354 137.685L271.378 130.221L272.148 129.502L279.527 137.398L276.508 148.268Z" fill="#8282A8"/>
    <path d="M260.511 143.22C260.735 143.855 260.698 144.553 260.408 145.16C260.118 145.768 259.598 146.235 258.963 146.46C258.649 146.572 258.315 146.621 257.982 146.603C257.649 146.586 257.322 146.503 257.021 146.359C256.72 146.216 256.45 146.014 256.227 145.766C256.004 145.517 255.833 145.227 255.722 144.913C255.61 144.598 255.562 144.265 255.58 143.932C255.597 143.599 255.68 143.273 255.824 142.972C255.968 142.671 256.169 142.401 256.418 142.178C256.666 141.955 256.955 141.783 257.27 141.672C257.905 141.448 258.603 141.486 259.211 141.776C259.819 142.066 260.286 142.585 260.511 143.22Z" fill="#B1B1DE"/>
    <path d="M268.501 150.055C268.612 150.369 268.66 150.703 268.643 151.036C268.625 151.369 268.542 151.695 268.398 151.996C268.255 152.297 268.053 152.566 267.805 152.789C267.557 153.012 267.267 153.184 266.953 153.295C266.317 153.519 265.619 153.482 265.012 153.192C264.404 152.902 263.936 152.382 263.711 151.748C263.487 151.113 263.524 150.415 263.815 149.807C264.105 149.2 264.624 148.732 265.259 148.507C265.574 148.396 265.907 148.347 266.24 148.364C266.574 148.382 266.9 148.464 267.201 148.608C267.503 148.752 267.772 148.954 267.995 149.202C268.218 149.45 268.39 149.74 268.501 150.055Z" fill="#F99746"/>
    <path d="M278.512 147.011C278.736 147.646 278.699 148.343 278.409 148.951C278.119 149.559 277.599 150.026 276.964 150.251C276.329 150.475 275.631 150.438 275.023 150.148C274.416 149.858 273.948 149.338 273.723 148.703C273.499 148.069 273.536 147.371 273.826 146.763C274.117 146.156 274.636 145.688 275.271 145.463C275.585 145.351 275.919 145.303 276.252 145.32C276.585 145.337 276.912 145.42 277.213 145.564C277.514 145.708 277.784 145.91 278.007 146.158C278.23 146.406 278.402 146.696 278.512 147.011Z" fill="#B1B1DE"/>
    <path d="M283.637 153.092C283.749 153.407 283.797 153.74 283.78 154.073C283.763 154.405 283.68 154.732 283.537 155.033C283.393 155.333 283.192 155.603 282.944 155.826C282.696 156.049 282.407 156.221 282.093 156.333C281.457 156.557 280.759 156.52 280.15 156.23C279.542 155.94 279.074 155.42 278.848 154.785C278.624 154.15 278.661 153.452 278.951 152.845C279.242 152.237 279.761 151.77 280.396 151.545C280.71 151.433 281.044 151.384 281.377 151.402C281.71 151.419 282.037 151.502 282.338 151.646C282.639 151.79 282.909 151.991 283.132 152.24C283.355 152.488 283.527 152.778 283.637 153.092Z" fill="#B1B1DE"/>
    <path d="M289.103 134.631C289.327 135.266 289.29 135.963 289 136.571C288.709 137.178 288.19 137.646 287.555 137.871C287.241 137.983 286.907 138.031 286.574 138.014C286.241 137.997 285.914 137.914 285.613 137.77C285.312 137.626 285.042 137.425 284.819 137.176C284.596 136.928 284.424 136.638 284.314 136.323C284.202 136.009 284.154 135.676 284.171 135.343C284.189 135.01 284.272 134.683 284.416 134.382C284.56 134.082 284.761 133.812 285.009 133.589C285.257 133.366 285.547 133.194 285.862 133.083C286.497 132.859 287.195 132.896 287.803 133.186C288.41 133.477 288.878 133.996 289.103 134.631Z" fill="#F99746"/>
    <path d="M278.285 122.193C278.509 122.828 278.472 123.526 278.182 124.134C277.891 124.741 277.372 125.209 276.737 125.434C276.102 125.658 275.404 125.62 274.796 125.33C274.188 125.04 273.721 124.521 273.496 123.886C273.384 123.572 273.336 123.239 273.353 122.906C273.37 122.573 273.453 122.247 273.596 121.946C273.74 121.645 273.941 121.375 274.189 121.152C274.437 120.929 274.726 120.757 275.04 120.646C275.355 120.534 275.689 120.485 276.022 120.502C276.356 120.52 276.683 120.603 276.984 120.746C277.285 120.89 277.556 121.092 277.779 121.34C278.002 121.588 278.174 121.878 278.285 122.193Z" fill="#B1B1DE"/>
    <path d="M281.756 136.573C281.981 137.208 281.943 137.906 281.653 138.514C281.363 139.121 280.843 139.589 280.208 139.814C279.894 139.926 279.561 139.974 279.227 139.957C278.894 139.94 278.567 139.857 278.266 139.713C277.965 139.569 277.695 139.367 277.472 139.119C277.249 138.871 277.078 138.581 276.967 138.266C276.743 137.631 276.78 136.933 277.07 136.326C277.361 135.718 277.88 135.251 278.515 135.026C279.15 134.802 279.848 134.839 280.456 135.129C281.064 135.419 281.532 135.939 281.756 136.573Z" fill="#B1B1DE"/>
    <path d="M274.248 128.826C274.472 129.461 274.435 130.16 274.145 130.768C273.854 131.376 273.335 131.844 272.7 132.07C272.065 132.294 271.366 132.257 270.759 131.966C270.151 131.676 269.683 131.157 269.458 130.522C269.347 130.208 269.299 129.874 269.316 129.541C269.333 129.208 269.416 128.881 269.56 128.58C269.704 128.279 269.906 128.009 270.154 127.785C270.402 127.562 270.692 127.39 271.006 127.279C271.642 127.055 272.34 127.092 272.947 127.382C273.555 127.672 274.023 128.191 274.248 128.826Z" fill="#F99746"/>
    <path d="M286.333 110.165L282.926 109.455L283.649 106.701L284.666 106.968L284.224 108.651L286.549 109.134L286.333 110.165Z" fill="#F99746"/>
    <path d="M55.9099 140.594L55.1426 142.72L51.5802 141.865L50.0761 144.838L47.3079 144.632L47.2031 146.034L50.9076 146.308L52.3339 143.49L56.0383 144.382L57.1909 141.179L55.9099 140.594Z" fill="#B1B1DE"/>
    <path d="M52.6504 81.4817L54.5127 81.6743L54.533 84.7051L57.2235 85.3235L57.6088 87.5907L58.758 87.3947L58.2408 84.3639L55.6923 83.7793L55.6687 80.6235L52.8667 80.3329L52.6504 81.4817Z" fill="#F99746"/>
    <path d="M126.956 125.829L121.865 142.179L105.841 118.737C105.841 118.737 99.9633 115.746 98.4862 115.469C97.1714 115.219 92.9465 114.821 92.284 115.527C92.2701 115.502 92.2513 115.48 92.2286 115.463C92.2059 115.445 92.1799 115.432 92.1522 115.425C91.5911 115.284 90.5602 117.176 90.4149 117.635C90.2695 118.095 91.4289 120.757 91.537 120.96C91.6452 121.163 91.2396 121.267 90.7292 121.075C90.2189 120.882 88.6134 119.048 88.6134 119.048C88.6134 119.048 88.4613 116.061 87.498 116.078C86.5347 116.094 87.4135 119.828 87.4135 119.828L88.3464 121.078L86.964 120.24C86.964 120.24 86.0142 118.213 85.7641 118.335C85.514 118.456 85.176 119.46 85.6999 120.517C86.1559 121.319 86.7137 122.058 87.3594 122.717L89.4584 123.795C89.4584 123.795 87.0214 123.585 86.3015 123.038C85.5816 122.491 85.2875 123.258 85.8621 123.906C86.4367 124.555 89.6409 125.667 91.6722 125.886C93.7036 126.106 100.038 125.944 100.947 125.775C101.687 125.64 103.063 125.437 103.749 125.809C104.648 128.441 112.469 156.934 121.926 160.273C121.926 160.273 126.293 159.702 131.272 148.376C136.25 137.05 138.914 130.245 138.914 130.245L126.956 125.829ZM97.55 120.027C96.8436 120.294 94.312 120.436 93.6495 120.196C92.987 119.956 91.9798 117.389 91.9798 117.389C92.1498 116.953 92.2722 116.499 92.3448 116.037C93.0884 116.845 96.2284 116.486 96.9382 116.939C97.7156 117.439 98.2598 119.76 97.5567 120.027H97.55Z" fill="#F7A491"/>
    <path d="M183.867 129.421C183.867 129.421 186.767 136.135 192.135 147.278C197.502 158.421 201.886 158.844 201.886 158.844C211.221 155.194 218.049 126.451 218.856 123.788C219.532 123.379 220.915 123.545 221.658 123.657C222.571 123.795 228.908 123.734 230.93 123.447C232.951 123.16 236.125 121.937 236.676 121.271C237.227 120.605 236.905 119.849 236.206 120.416C235.506 120.984 233.079 121.281 233.079 121.281L235.138 120.132C235.76 119.451 236.291 118.692 236.72 117.875C237.206 116.801 236.834 115.794 236.581 115.699C236.327 115.605 235.449 117.642 235.449 117.642L234.097 118.527L234.986 117.247C234.986 117.247 235.729 113.483 234.769 113.5C233.809 113.517 233.755 116.507 233.755 116.507C233.755 116.507 232.217 118.409 231.727 118.619C231.237 118.828 230.818 118.737 230.916 118.531C231.014 118.325 232.082 115.625 231.93 115.172C231.778 114.72 230.676 112.861 230.122 113.023C230.066 113.04 230.019 113.078 229.99 113.128C229.314 112.452 225.096 112.99 223.788 113.284C222.324 113.621 216.551 116.804 216.551 116.804V116.825L201.342 140.814L195.687 124.653L183.867 129.421ZM225.356 114.726C226.049 114.247 229.199 114.497 229.912 113.665C230.004 114.122 230.143 114.569 230.328 114.997C230.328 114.997 229.409 117.595 228.756 117.858C228.104 118.122 225.566 118.068 224.853 117.825C224.139 117.581 224.602 115.247 225.356 114.726Z" fill="#F7A491"/>
    <path d="M158.43 171.278C153.015 168.617 147.383 166.422 141.595 164.716C128.579 160.857 111.05 158.296 101.1 166.598C95.2488 171.473 155.784 177.907 155.784 177.907L158.43 171.278Z" fill="#8282A8"/>
    <path d="M223.869 169.679C223.869 169.679 218.123 161.232 203.288 161.425C197.515 161.502 189.515 162.648 182.221 164.091C169.215 166.662 156.949 170.987 156.949 170.987L155.793 177.907L223.869 169.679Z" fill="#8282A8"/>
    <path d="M139.559 181.701L165.895 194.524L186.503 178.055L179.743 163.27L142.405 165.611L139.559 181.701Z" fill="#8282A8"/>
    <path d="M145.308 88.067C142.361 82.0629 142.205 70.7134 144.514 64.047C146.386 58.6409 150.865 55.583 156.628 54.9546C163.316 54.2281 167.582 55.5391 172.794 58.945C178.219 62.4894 184.705 66.3311 190.941 67.8955C199.076 69.9228 207.472 71.4364 214.915 75.2984C219.826 77.8461 224.396 81.6371 226.359 86.8101C229.168 94.2131 225.954 102.738 220.759 108.722C212.927 117.743 200.53 122.575 188.649 121.247C179.408 120.21 170.691 115.463 164.624 108.448C161.887 105.282 159.815 102.93 156.55 100.369C152.372 97.0851 147.684 92.9021 145.308 88.067Z" fill="#333343"/>
    <path d="M180.406 95.9667C180.406 95.9667 170.121 94.953 159.985 94.6152C150.94 94.3246 141.26 95.9971 140.624 96.6425C138.096 99.2644 137.18 121.764 138.596 125.917C140.013 130.069 146.614 140.844 145.393 147.879C144.173 154.914 141.645 164.716 141.645 164.716C141.645 164.716 150.244 169.628 161.093 169.551C167.607 169.503 176.617 168.199 182.211 164.077C182.211 164.077 178.946 155.356 179.278 148.487C179.609 141.618 183.134 129.924 185 125.714C186.866 121.504 183.851 96.6526 180.406 95.9667Z" fill="url(#paint17_linear_1_16302)"/>
    <path d="M144.687 98.5416L140.81 96.5717C140.81 96.5717 136.416 97.8252 134.138 101.109C132.262 103.813 123.863 128.289 123.863 128.289C123.863 128.289 135.582 132.857 139.31 132.644L145.018 117.629L144.687 98.5416Z" fill="url(#paint18_linear_1_16302)"/>
    <path d="M176.312 97.9774L180.473 95.967C180.473 95.967 183.12 96.5042 186.513 100.444C188.659 102.934 198.154 126.985 198.154 126.985C198.154 126.985 186.601 131.958 182.866 131.874L176.644 117.064L176.312 97.9774Z" fill="url(#paint19_linear_1_16302)"/>
    <path d="M164.526 81.627C164.526 81.627 165.229 91.6757 165.878 94.8754C166.554 98.1833 167.423 113.385 160.548 115.189C153.673 116.993 155.377 98.0144 155.204 94.6626C155.032 91.3108 153.457 79.8194 153.457 79.8194L164.526 81.627Z" fill="#F7A491"/>
    <path d="M153.447 79.8194C153.447 79.8194 153.765 82.1373 154.123 84.9924C156.699 86.9419 160.207 87.4251 164.263 85.0397C164.439 84.9383 164.601 84.8268 164.77 84.7018C164.621 82.9009 164.534 81.6102 164.534 81.6102L153.447 79.8194Z" fill="#F47458"/>
    <path d="M161.3 58.1309C163.98 58.9744 166.272 60.7464 167.762 63.1282C170.165 67.0679 171.524 78.4782 163.03 83.5059C154.537 88.5336 148.301 80.8231 148.436 73.5046C148.571 66.186 150.454 56.4854 161.3 58.1309Z" fill="#F7A491"/>
    <path d="M146.6 71.1731C147.252 72.9605 148.628 74.1025 149.669 73.7207C150.71 73.3389 151.021 71.5853 150.372 69.7979C149.723 68.0105 148.344 66.8684 147.306 67.2469C146.269 67.6253 145.948 69.3688 146.6 71.1731Z" fill="#F7A491"/>
    <path d="M160.078 57.8503C160.078 57.8503 164.915 69.7269 169.464 70.923C174.014 72.1191 173.757 78.0185 173.757 78.0185C173.757 78.0185 174.095 64.4153 169.907 61.1548C165.719 57.8942 160.078 57.8503 160.078 57.8503Z" fill="#333343"/>
    <path d="M167.565 73.2949C166.889 75.1769 167.39 77.0657 168.661 77.5151C169.931 77.9645 171.503 76.8055 172.169 74.9269C172.835 73.0483 172.345 71.1561 171.074 70.7067C169.803 70.2573 168.231 71.4163 167.565 73.2949Z" fill="#F7A491"/>
    <path d="M117.454 187.367C117.454 187.367 114.412 184.864 110.809 183.908C107.206 182.951 107.274 185.597 106.348 189.652C105.421 193.706 103.86 196.409 101.883 200.349C99.9054 204.289 102.329 213.3 103.434 213.415C106.111 213.699 107.351 207.972 109.883 203.089C112.415 198.207 119.469 196.565 121.527 196.331C128.766 195.329 136.07 194.861 143.378 194.933C140.796 190.02 137.068 186.016 133.238 181.755C123.896 185.012 117.454 187.367 117.454 187.367Z" fill="#F7A491"/>
    <path d="M225.837 174.193C224.579 167.851 219.263 165.26 213.125 165.408C198.976 165.78 159.086 174.903 135.342 182.336C136.765 187.445 135.68 190.783 137.37 196.038C162.52 194.686 209.701 190.783 223.359 182.921C225.485 181.708 226.442 177.268 225.837 174.193Z" fill="#B1B1DE"/>
    <path d="M209.335 201.981C207.547 197.926 205.752 195.277 205.019 191.168C204.147 186.303 204.556 183.583 198.597 185.887C195.179 187.229 191.376 187.211 187.97 185.837C185.736 184.921 182.975 183.809 179.838 182.539C177.79 186.776 176.561 191.361 176.215 196.054C183.651 196.818 189.059 197.568 189.329 197.595C190.522 197.72 198.573 199.416 200.872 204.413C203.17 209.411 204.204 215.631 206.824 215.033C208.321 214.685 211.113 206.018 209.335 201.981Z" fill="#F7A491"/>
    <path d="M115.324 163.185C109.758 163.033 100.138 164.08 98.6984 170.365C98.0021 173.406 98.259 177.68 99.4994 180.552C101.047 184.134 104.613 186.087 108.152 187.6C114.912 190.459 156.658 194.889 178.171 197.105C180.713 192.506 182.812 187.398 182.653 182.914C161.883 174.589 125.985 163.482 115.324 163.185Z" fill="#D6D6ED"/>
    <defs>
        <linearGradient id="paint0_linear_1_16302" x1="157.953" y1="211.296" x2="157.953" y2="239.898" gradientUnits="userSpaceOnUse">
            <stop stop-color="#9D70FF"/>
            <stop offset="1" stop-color="#7460FF"/>
        </linearGradient>
        <linearGradient id="paint1_linear_1_16302" x1="67.5" y1="59" x2="67.5" y2="73" gradientUnits="userSpaceOnUse">
            <stop stop-color="#9D70FF"/>
            <stop offset="1" stop-color="#7460FF"/>
        </linearGradient>
        <linearGradient id="paint2_linear_1_16302" x1="271.062" y1="61.0405" x2="271.062" y2="69.1842" gradientUnits="userSpaceOnUse">
            <stop stop-color="#9D70FF"/>
            <stop offset="1" stop-color="#7460FF"/>
        </linearGradient>
        <linearGradient id="paint3_linear_1_16302" x1="210.653" y1="29.2622" x2="210.653" y2="43.4398" gradientUnits="userSpaceOnUse">
            <stop stop-color="#9D70FF"/>
            <stop offset="1" stop-color="#7460FF"/>
        </linearGradient>
        <linearGradient id="paint4_linear_1_16302" x1="236.883" y1="42.2943" x2="236.883" y2="45.6663" gradientUnits="userSpaceOnUse">
            <stop stop-color="#9D70FF"/>
            <stop offset="1" stop-color="#7460FF"/>
        </linearGradient>
        <linearGradient id="paint5_linear_1_16302" x1="233.984" y1="37.7296" x2="233.984" y2="42.8687" gradientUnits="userSpaceOnUse">
            <stop stop-color="#9D70FF"/>
            <stop offset="1" stop-color="#7460FF"/>
        </linearGradient>
        <linearGradient id="paint6_linear_1_16302" x1="232.856" y1="42.5576" x2="232.856" y2="44.3112" gradientUnits="userSpaceOnUse">
            <stop stop-color="#9D70FF"/>
            <stop offset="1" stop-color="#7460FF"/>
        </linearGradient>
        <linearGradient id="paint7_linear_1_16302" x1="235.656" y1="41.8726" x2="235.656" y2="45.0073" gradientUnits="userSpaceOnUse">
            <stop stop-color="#9D70FF"/>
            <stop offset="1" stop-color="#7460FF"/>
        </linearGradient>
        <linearGradient id="paint8_linear_1_16302" x1="49.1043" y1="100.704" x2="49.1043" y2="129.644" gradientUnits="userSpaceOnUse">
            <stop stop-color="#9D70FF"/>
            <stop offset="1" stop-color="#7460FF"/>
        </linearGradient>
        <linearGradient id="paint9_linear_1_16302" x1="49.0464" y1="107.164" x2="49.0464" y2="122.997" gradientUnits="userSpaceOnUse">
            <stop stop-color="#9D70FF"/>
            <stop offset="1" stop-color="#7460FF"/>
        </linearGradient>
        <linearGradient id="paint10_linear_1_16302" x1="48.8821" y1="106.985" x2="48.8821" y2="123.085" gradientUnits="userSpaceOnUse">
            <stop stop-color="#9D70FF"/>
            <stop offset="1" stop-color="#7460FF"/>
        </linearGradient>
        <linearGradient id="paint11_linear_1_16302" x1="49.1239" y1="112.418" x2="49.1239" y2="117.047" gradientUnits="userSpaceOnUse">
            <stop stop-color="#9D70FF"/>
            <stop offset="1" stop-color="#7460FF"/>
        </linearGradient>
        <linearGradient id="paint12_linear_1_16302" x1="46.7119" y1="102.147" x2="46.7119" y2="105.62" gradientUnits="userSpaceOnUse">
            <stop stop-color="#9D70FF"/>
            <stop offset="1" stop-color="#7460FF"/>
        </linearGradient>
        <linearGradient id="paint13_linear_1_16302" x1="52.3568" y1="123.028" x2="52.3568" y2="125.92" gradientUnits="userSpaceOnUse">
            <stop stop-color="#9D70FF"/>
            <stop offset="1" stop-color="#7460FF"/>
        </linearGradient>
        <linearGradient id="paint14_linear_1_16302" x1="38.2713" y1="116.037" x2="38.2713" y2="119.024" gradientUnits="userSpaceOnUse">
            <stop stop-color="#9D70FF"/>
            <stop offset="1" stop-color="#7460FF"/>
        </linearGradient>
        <linearGradient id="paint15_linear_1_16302" x1="60.6776" y1="109.621" x2="60.6776" y2="112.08" gradientUnits="userSpaceOnUse">
            <stop stop-color="#9D70FF"/>
            <stop offset="1" stop-color="#7460FF"/>
        </linearGradient>
        <linearGradient id="paint16_linear_1_16302" x1="42.4608" y1="107.046" x2="42.4608" y2="109.502" gradientUnits="userSpaceOnUse">
            <stop stop-color="#9D70FF"/>
            <stop offset="1" stop-color="#7460FF"/>
        </linearGradient>
        <linearGradient id="paint17_linear_1_16302" x1="161.75" y1="94.5816" x2="161.75" y2="169.552" gradientUnits="userSpaceOnUse">
            <stop stop-color="#9D70FF"/>
            <stop offset="1" stop-color="#7460FF"/>
        </linearGradient>
        <linearGradient id="paint18_linear_1_16302" x1="134.441" y1="96.5717" x2="134.441" y2="132.651" gradientUnits="userSpaceOnUse">
            <stop stop-color="#9D70FF"/>
            <stop offset="1" stop-color="#7460FF"/>
        </linearGradient>
        <linearGradient id="paint19_linear_1_16302" x1="187.233" y1="95.967" x2="187.233" y2="131.875" gradientUnits="userSpaceOnUse">
            <stop stop-color="#9D70FF"/>
            <stop offset="1" stop-color="#7460FF"/>
        </linearGradient>
    </defs>
</svg>