<svg width="16" height="16" viewBox="0 0 16 16" fill="none" xmlns="http://www.w3.org/2000/svg">
    <path d="M11.8736 3.66001V4.15334L9.51362 2.78668C8.62029 2.27334 7.37362 2.27334 6.48695 2.78668L4.12695 4.16001V3.66001C4.12695 2.16001 4.94695 1.33334 6.44695 1.33334H9.55362C11.0536 1.33334 11.8736 2.16001 11.8736 3.66001Z" fill="url(#paint0_linear_1_16412)"/>
    <path d="M11.894 5.31334L11.8007 5.26667L10.894 4.74667L9.01398 3.66C8.44065 3.32667 7.56065 3.32667 6.98732 3.66L5.10732 4.74L4.20065 5.27334L4.08065 5.33334C2.91398 6.12 2.83398 6.26667 2.83398 7.52667V10.54C2.83398 11.8 2.91398 11.9467 4.10732 12.7533L6.98732 14.4133C7.27398 14.5867 7.63398 14.66 8.00065 14.66C8.36065 14.66 8.72732 14.58 9.01398 14.4133L11.9206 12.7333C13.094 11.9467 13.1673 11.8067 13.1673 10.54V7.52667C13.1673 6.26667 13.0873 6.12 11.894 5.31334ZM9.86065 9L9.45398 9.5C9.38732 9.57334 9.34065 9.71334 9.34732 9.81334L9.38732 10.4533C9.41398 10.8467 9.13398 11.0467 8.76732 10.9067L8.17398 10.6667C8.08065 10.6333 7.92732 10.6333 7.83398 10.6667L7.24065 10.9C6.87398 11.0467 6.59398 10.84 6.62065 10.4467L6.66065 9.80667C6.66732 9.70667 6.62065 9.56667 6.55398 9.49334L6.14065 9C5.88732 8.7 6.00065 8.36667 6.38065 8.26667L7.00065 8.10667C7.10065 8.08 7.21398 7.98667 7.26732 7.90667L7.61398 7.37334C7.82732 7.04 8.16732 7.04 8.38732 7.37334L8.73398 7.90667C8.78732 7.99334 8.90732 8.08 9.00065 8.10667L9.62065 8.26667C10.0007 8.36667 10.114 8.7 9.86065 9Z" fill="url(#paint1_linear_1_16412)"/>
    <defs>
        <linearGradient id="paint0_linear_1_16412" x1="8.00029" y1="1.33334" x2="8.00029" y2="4.16001" gradientUnits="userSpaceOnUse">
            <stop stop-color="#9D70FF"/>
            <stop offset="1" stop-color="#7460FF"/>
        </linearGradient>
        <linearGradient id="paint1_linear_1_16412" x1="8.00065" y1="3.41" x2="8.00065" y2="14.66" gradientUnits="userSpaceOnUse">
            <stop stop-color="#9D70FF"/>
            <stop offset="1" stop-color="#7460FF"/>
        </linearGradient>
    </defs>
</svg>