<svg width="16" height="16" viewBox="0 0 16 16" fill="none" xmlns="http://www.w3.org/2000/svg">
    <path fill-rule="evenodd" clip-rule="evenodd" d="M5.16978 0.5C5.40424 0.5 5.59431 0.690068 5.59431 0.924528V3.04717C5.59431 3.28163 5.40424 3.4717 5.16978 3.4717C4.93532 3.4717 4.74526 3.28163 4.74526 3.04717V0.924528C4.74526 0.690068 4.93532 0.5 5.16978 0.5Z" fill="#8496AE"/>
    <path fill-rule="evenodd" clip-rule="evenodd" d="M10.8302 0.5C11.0646 0.5 11.2547 0.690068 11.2547 0.924528V3.04717C11.2547 3.28163 11.0646 3.4717 10.8302 3.4717C10.5957 3.4717 10.4056 3.28163 10.4056 3.04717V0.924528C10.4056 0.690068 10.5957 0.5 10.8302 0.5Z" fill="#8496AE"/>
    <path fill-rule="evenodd" clip-rule="evenodd" d="M1.56129 5.94107C1.56129 5.7066 1.75136 5.51654 1.98582 5.51654H14.0141C14.2486 5.51654 14.4387 5.7066 14.4387 5.94107C14.4387 6.17553 14.2486 6.36559 14.0141 6.36559H1.98582C1.75136 6.36559 1.56129 6.17553 1.56129 5.94107Z" fill="#8496AE"/>
    <path fill-rule="evenodd" clip-rule="evenodd" d="M2.78335 3.2476C2.3057 3.76199 2.05658 4.52734 2.05658 5.52358V11.5377C2.05658 12.534 2.3057 13.2993 2.78335 13.8137C3.25572 14.3224 4.01249 14.6509 5.16978 14.6509H10.8302C11.9875 14.6509 12.7442 14.3224 13.2166 13.8137C13.6942 13.2993 13.9434 12.534 13.9434 11.5377V5.52358C13.9434 4.52734 13.6942 3.76199 13.2166 3.2476C12.7442 2.7389 11.9875 2.41038 10.8302 2.41038H5.16978C4.01249 2.41038 3.25572 2.7389 2.78335 3.2476ZM2.16117 2.66986C2.83857 1.94035 3.85066 1.56132 5.16978 1.56132H10.8302C12.1493 1.56132 13.1614 1.94035 13.8388 2.66986C14.5109 3.39367 14.7924 4.39719 14.7924 5.52358V11.5377C14.7924 12.6641 14.5109 13.6677 13.8388 14.3915C13.1614 15.121 12.1493 15.5 10.8302 15.5H5.16978C3.85066 15.5 2.83857 15.121 2.16117 14.3915C1.48906 13.6677 1.20752 12.6641 1.20752 11.5377V5.52358C1.20752 4.39719 1.48906 3.39367 2.16117 2.66986Z" fill="#8496AE"/>
    <path fill-rule="evenodd" clip-rule="evenodd" d="M7.4306 9.20283C7.4306 8.89022 7.68402 8.63679 7.99664 8.63679H8.00299C8.31561 8.63679 8.56903 8.89022 8.56903 9.20283C8.56903 9.51544 8.31561 9.76887 8.00299 9.76887H7.99664C7.68402 9.76887 7.4306 9.51544 7.4306 9.20283Z" fill="#8496AE"/>
    <path fill-rule="evenodd" clip-rule="evenodd" d="M4.81212 9.20283C4.81212 8.89022 5.06555 8.63679 5.37816 8.63679H5.38452C5.69713 8.63679 5.95055 8.89022 5.95055 9.20283C5.95055 9.51544 5.69713 9.76887 5.38452 9.76887H5.37816C5.06555 9.76887 4.81212 9.51544 4.81212 9.20283Z" fill="#8496AE"/>
    <path fill-rule="evenodd" clip-rule="evenodd" d="M4.81212 11.3255C4.81212 11.0129 5.06555 10.7594 5.37816 10.7594H5.38452C5.69713 10.7594 5.95055 11.0129 5.95055 11.3255C5.95055 11.6381 5.69713 11.8915 5.38452 11.8915H5.37816C5.06555 11.8915 4.81212 11.6381 4.81212 11.3255Z" fill="#8496AE"/>
</svg>
