<svg width="20" height="20" viewBox="0 0 20 20" fill="none" xmlns="http://www.w3.org/2000/svg">
    <path d="M10.0013 1.66669C5.40964 1.66669 1.66797 5.40835 1.66797 10C1.66797 14.5917 5.40964 18.3334 10.0013 18.3334C14.593 18.3334 18.3346 14.5917 18.3346 10C18.3346 5.40835 14.593 1.66669 10.0013 1.66669ZM13.9846 8.08335L9.25964 12.8084C9.14297 12.925 8.98464 12.9917 8.81797 12.9917C8.6513 12.9917 8.49297 12.925 8.3763 12.8084L6.01797 10.45C5.7763 10.2084 5.7763 9.80835 6.01797 9.56669C6.25964 9.32502 6.65964 9.32502 6.9013 9.56669L8.81797 11.4834L13.1013 7.20002C13.343 6.95835 13.743 6.95835 13.9846 7.20002C14.2263 7.44169 14.2263 7.83335 13.9846 8.08335Z" fill="#008046"/>
</svg>
