<svg width="20" height="20" viewBox="0 0 20 20" fill="none" xmlns="http://www.w3.org/2000/svg">
    <path d="M10.0013 18.9584C5.05964 18.9584 1.04297 14.9417 1.04297 10C1.04297 5.05835 5.05964 1.04169 10.0013 1.04169C14.943 1.04169 18.9596 5.05835 18.9596 10C18.9596 14.9417 14.943 18.9584 10.0013 18.9584ZM10.0013 2.29169C5.7513 2.29169 2.29297 5.75002 2.29297 10C2.29297 14.25 5.7513 17.7084 10.0013 17.7084C14.2513 17.7084 17.7096 14.25 17.7096 10C17.7096 5.75002 14.2513 2.29169 10.0013 2.29169Z" fill="#14171A" fill-opacity="0.6"/>
    <path d="M7.20078 12.8C7.32578 12.925 7.48411 12.9833 7.64245 12.9833C7.80078 12.9833 7.96745 12.925 8.08411 12.8L10.0009 10.8834L11.9174 12.8C12.0424 12.925 12.2008 12.9833 12.3591 12.9833C12.5174 12.9833 12.6758 12.925 12.8008 12.8C13.0424 12.5583 13.0424 12.1583 12.8008 11.9167L10.8842 10.0001L12.8008 8.08332C13.0424 7.84165 13.0424 7.44165 12.8008 7.19999C12.5591 6.95832 12.1591 6.95832 11.9174 7.19999L10.0009 9.11677L8.08411 7.19999C7.84245 6.95832 7.44245 6.95832 7.20078 7.19999C6.95911 7.44165 6.95911 7.84165 7.20078 8.08332L9.11756 10.0001L7.20078 11.9167C6.95911 12.1583 6.95911 12.5583 7.20078 12.8Z" fill="#14171A" fill-opacity="0.6"/>
</svg>
