<svg width="16" height="16" viewBox="0 0 16 16" fill="none"
    xmlns="http://www.w3.org/2000/svg">
    <path d="M13.9999 5.01334V8.93334C13.9999 9.16001 13.7799 9.32001 13.5666 9.25334L10.9466 8.44001C10.2266 8.22001 9.45325 8.40668 8.92659 8.93334C8.39325 9.46668 8.19992 10.2467 8.42659 10.9667L9.23325 13.5667C9.29992 13.78 9.13992 14 8.91325 14H5.01325C2.71325 14 1.33325 12.6267 1.33325 10.32V5.01334C1.33325 2.70668 2.71325 1.33334 5.01325 1.33334H10.3199C12.6199 1.33334 13.9999 2.70668 13.9999 5.01334Z" fill="#323A43"/>
    <path d="M14.64 12.56L13.5534 12.9267C13.2534 13.0267 13.0134 13.26 12.9134 13.5667L12.5467 14.6533C12.2334 15.5933 10.9134 15.5733 10.62 14.6333L9.3867 10.6667C9.1467 9.87999 9.87337 9.14666 10.6534 9.39333L14.6267 10.6267C15.56 10.92 15.5734 12.2467 14.64 12.56Z" fill="#323A43"/>
</svg>
