<svg width="32" height="32" viewBox="0 0 32 32" fill="none" xmlns="http://www.w3.org/2000/svg">
    <rect width="32" height="32" rx="12" fill="white"/>
    <path d="M10.2053 22.1797C10.299 22.2682 10.4058 22.3281 10.5256 22.3594C10.6454 22.3906 10.7652 22.3906 10.8849 22.3594C11.0047 22.3281 11.1089 22.2682 11.1974 22.1797L16.1974 17.1797L21.1974 22.1797C21.286 22.2682 21.3902 22.3281 21.5099 22.3594C21.6297 22.3906 21.7495 22.3906 21.8693 22.3594C21.9943 22.3333 22.1011 22.2734 22.1896 22.1797C22.2782 22.0911 22.3355 21.987 22.3615 21.8672C22.3928 21.7474 22.3928 21.6276 22.3615 21.5078C22.3355 21.388 22.2782 21.2839 22.1896 21.1953L17.1896 16.1875L22.1896 11.1875C22.2782 11.099 22.3381 10.9948 22.3693 10.875C22.4006 10.7552 22.4006 10.6354 22.3693 10.5156C22.3381 10.3958 22.2782 10.2917 22.1896 10.2031C22.0959 10.1094 21.9891 10.0495 21.8693 10.0234C21.7495 9.99219 21.6297 9.99219 21.5099 10.0234C21.3902 10.0495 21.286 10.1094 21.1974 10.2031L16.1974 15.2031L11.1974 10.2031C11.1089 10.1094 11.0021 10.0495 10.8771 10.0234C10.7573 9.99219 10.6375 9.99219 10.5178 10.0234C10.398 10.0495 10.2938 10.1094 10.2053 10.2031C10.1167 10.2917 10.0568 10.3958 10.0256 10.5156C9.99953 10.6354 9.99953 10.7552 10.0256 10.875C10.0568 10.9948 10.1167 11.099 10.2053 11.1875L15.2053 16.1875L10.2053 21.1953C10.1167 21.2839 10.0568 21.388 10.0256 21.5078C9.99432 21.6276 9.99171 21.7474 10.0178 21.8672C10.049 21.987 10.1115 22.0911 10.2053 22.1797Z" fill="#202327"/>
</svg>