<svg width="16" height="16" viewBox="0 0 16 16" fill="none" xmlns="http://www.w3.org/2000/svg">
    <path fill-rule="evenodd" clip-rule="evenodd" d="M10.3451 0.958172C11.1229 0.858708 11.9098 1.17678 12.7094 1.92915L12.7104 1.93002C13.5127 2.68875 13.8779 3.45841 13.8231 4.24233C13.7701 4.99983 13.331 5.64097 12.8303 6.17001L11.9824 7.06746C11.9478 7.12193 11.9032 7.16898 11.8513 7.20623L7.35964 11.9605C7.20542 12.1284 6.99776 12.2706 6.80089 12.3759C6.6015 12.4825 6.37086 12.5738 6.15433 12.6122L6.151 12.6128L4.0051 12.9794C3.48472 13.0691 2.98572 12.939 2.63025 12.6019C2.27528 12.2653 2.11843 11.7744 2.17654 11.2514L2.17671 11.2499L2.42444 9.08054C2.45322 8.86474 2.53336 8.63122 2.62783 8.42864C2.72196 8.22679 2.8504 8.01276 3.00239 7.85096L3.00336 7.84993L7.5514 3.03599C7.55916 3.02717 7.56723 3.01863 7.57561 3.01036L8.4767 2.05659C8.97772 1.52734 9.59341 1.05429 10.3451 0.958172ZM12.1034 5.48326L11.3613 6.26874C9.92805 6.02377 8.78334 4.94124 8.46522 3.52488L9.20325 2.7437C9.6488 2.27312 10.0636 2.0023 10.4719 1.95009C10.5787 1.93643 10.695 1.93664 10.8217 1.95774C11.1481 2.01211 11.5434 2.20517 12.0238 2.6571C12.6944 3.29146 12.8524 3.78829 12.8255 4.1726C12.803 4.49559 12.6449 4.82998 12.3616 5.18714C12.2847 5.28409 12.1985 5.38272 12.1034 5.48326ZM3.73124 8.53564L7.67465 4.36167C8.16969 5.66938 9.24014 6.67991 10.5725 7.10365L6.62997 11.2765L6.624 11.2831C6.57189 11.3402 6.46779 11.42 6.3294 11.494C6.19289 11.567 6.06422 11.6123 5.9807 11.6274L3.83596 11.9938L3.83519 11.9939C3.58223 12.0375 3.41457 11.9676 3.31837 11.8763C3.22176 11.7847 3.14201 11.6192 3.17034 11.3625L3.17042 11.3618L3.41629 9.20885C3.42821 9.12446 3.46795 8.99319 3.53413 8.85129C3.60152 8.70678 3.67659 8.59395 3.73124 8.53564Z" fill="#202327"/>
    <path d="M2 14.1667C1.72386 14.1667 1.5 14.3905 1.5 14.6667C1.5 14.9428 1.72386 15.1667 2 15.1667H14C14.2761 15.1667 14.5 14.9428 14.5 14.6667C14.5 14.3905 14.2761 14.1667 14 14.1667H2Z" fill="#202327"/>
</svg>