<svg width="20" height="20" viewBox="0 0 20 20" fill="none" xmlns="http://www.w3.org/2000/svg">
    <path d="M14.4899 13.3846C15.1129 12.9755 15.9311 13.4218 15.9311 14.1657V15.3652C15.9311 16.5461 15.0106 17.8108 13.904 18.1827L10.9378 19.1684C10.4171 19.345 9.57089 19.345 9.05946 19.1684L6.0932 18.1827C4.97737 17.8108 4.0661 16.5461 4.0661 15.3652V14.1564C4.0661 13.4218 4.88438 12.9755 5.49809 13.3753L7.41361 14.6213C8.1482 15.1142 9.07806 15.3559 10.0079 15.3559C10.9378 15.3559 11.8676 15.1142 12.6022 14.6213L14.4899 13.3846Z" fill="#727476"/>
    <path d="M10.0207 13.9611C9.28975 13.9611 8.5502 13.7759 7.97403 13.4139L2.79712 10.1055C1.83398 9.49099 1.25781 8.45555 1.25781 7.3275C1.25781 6.19945 1.83398 5.164 2.79712 4.54947L7.98263 1.24951C9.13496 0.517118 10.9323 0.517118 12.076 1.25793L17.2271 4.56631C18.1755 5.17685 18.7503 6.20287 18.7577 7.31413V12.743C18.7577 13.1281 18.4455 13.4404 18.0603 13.4404C17.6752 13.4404 17.3629 13.1281 17.3629 12.743V10.0134C17.3186 10.0451 17.2733 10.0758 17.2271 10.1055L12.076 13.4139C11.4998 13.7843 10.7603 13.9611 10.0207 13.9611Z" fill="#727476"/>
</svg>
