<svg width="20" height="20" viewBox="0 0 20 20" fill="none" xmlns="http://www.w3.org/2000/svg">
    <path d="M17.6013 5.81663L14.1846 2.39996C13.7846 1.99996 12.9846 1.66663 12.418 1.66663H7.58464C7.01797 1.66663 6.21797 1.99996 5.81797 2.39996L2.4013 5.81663C2.0013 6.21663 1.66797 7.01663 1.66797 7.58329V12.4166C1.66797 12.9833 2.0013 13.7833 2.4013 14.1833L5.81797 17.6C6.21797 18 7.01797 18.3333 7.58464 18.3333H12.418C12.9846 18.3333 13.7846 18 14.1846 17.6L17.6013 14.1833C18.0013 13.7833 18.3346 12.9833 18.3346 12.4166V7.58329C18.3346 7.01663 18.0013 6.21663 17.6013 5.81663ZM13.3596 12.475C13.6013 12.7166 13.6013 13.1166 13.3596 13.3583C13.2346 13.4833 13.0763 13.5416 12.918 13.5416C12.7596 13.5416 12.6013 13.4833 12.4763 13.3583L10.0013 10.8833L7.5263 13.3583C7.4013 13.4833 7.24297 13.5416 7.08464 13.5416C6.9263 13.5416 6.76797 13.4833 6.64297 13.3583C6.4013 13.1166 6.4013 12.7166 6.64297 12.475L9.11797 9.99996L6.64297 7.52496C6.4013 7.28329 6.4013 6.88329 6.64297 6.64163C6.88464 6.39996 7.28464 6.39996 7.5263 6.64163L10.0013 9.11663L12.4763 6.64163C12.718 6.39996 13.118 6.39996 13.3596 6.64163C13.6013 6.88329 13.6013 7.28329 13.3596 7.52496L10.8846 9.99996L13.3596 12.475Z" fill="#BF0D1F"/>
</svg>
