<svg width="16" height="16" viewBox="0 0 16 16" fill="none"
    xmlns="http://www.w3.org/2000/svg">
    <path d="M11.333 15.1667H4.66634C1.72634 15.1667 0.833008 14.2734 0.833008 11.3334V4.66671C0.833008 1.72671 1.72634 0.833374 4.66634 0.833374H5.66634C6.83301 0.833374 7.19967 1.21337 7.66634 1.83337L8.66634 3.16671C8.88634 3.46004 8.91967 3.50004 9.33301 3.50004H11.333C14.273 3.50004 15.1663 4.39337 15.1663 7.33337V11.3334C15.1663 14.2734 14.273 15.1667 11.333 15.1667ZM4.66634 1.83337C2.27967 1.83337 1.83301 2.28671 1.83301 4.66671V11.3334C1.83301 13.7134 2.27967 14.1667 4.66634 14.1667H11.333C13.7197 14.1667 14.1663 13.7134 14.1663 11.3334V7.33337C14.1663 4.95337 13.7197 4.50004 11.333 4.50004H9.33301C8.47967 4.50004 8.19967 4.20671 7.86634 3.76671L6.86634 2.43337C6.51967 1.97337 6.41301 1.83337 5.66634 1.83337H4.66634Z" fill="black"/>
    <path d="M13.333 4.75337C13.0597 4.75337 12.833 4.52671 12.833 4.25337V3.33337C12.833 2.28004 12.3863 1.83337 11.333 1.83337H5.33301C5.05967 1.83337 4.83301 1.60671 4.83301 1.33337C4.83301 1.06004 5.05967 0.833374 5.33301 0.833374H11.333C12.9463 0.833374 13.833 1.72004 13.833 3.33337V4.25337C13.833 4.52671 13.6063 4.75337 13.333 4.75337Z" fill="black"/>
</svg>
