<svg width="20" height="20" viewBox="0 0 20 20" fill="none" xmlns="http://www.w3.org/2000/svg">
    <path d="M18.3334 5.41667H13.3334M5.41675 5.41667H1.66675M5.41675 5.41667C5.41675 7.0275 6.72258 8.33333 8.33342 8.33333C9.94425 8.33333 11.2501 7.0275 11.2501 5.41667C11.2501 3.80584 9.94425 2.5 8.33342 2.5C6.72258 2.5 5.41675 3.80584 5.41675 5.41667ZM18.3334 14.5833H14.5834M14.5834 14.5833C14.5834 16.1942 13.2776 17.5 11.6667 17.5C10.0559 17.5 8.75008 16.1942 8.75008 14.5833C8.75008 12.9725 10.0559 11.6667 11.6667 11.6667C13.2776 11.6667 14.5834 12.9725 14.5834 14.5833ZM6.66675 14.5833H1.66675" stroke="url(#paint0_linear_961_18414)" stroke-width="1.5" stroke-miterlimit="10" stroke-linecap="round" stroke-linejoin="round"/>
    <defs>
        <linearGradient id="paint0_linear_961_18414" x1="10.0001" y1="2.5" x2="10.0001" y2="17.5" gradientUnits="userSpaceOnUse">
            <stop stop-color="#9D70FF"/>
            <stop offset="1" stop-color="#7460FF"/>
        </linearGradient>
    </defs>
</svg>
