<svg width="16" height="16" viewBox="0 0 16 16" fill="none" xmlns="http://www.w3.org/2000/svg">
    <path d="M8 1C8.91925 1 9.8295 1.18106 10.6788 1.53284C11.5281 1.88463 12.2997 2.40024 12.9497 3.05025C13.5998 3.70026 14.1154 4.47194 14.4672 5.32122C14.8189 6.1705 15 7.08075 15 8C15 8.91925 14.8189 9.8295 14.4672 10.6788C14.1154 11.5281 13.5998 12.2997 12.9497 12.9497C12.2997 13.5998 11.5281 14.1154 10.6788 14.4672C9.8295 14.8189 8.91925 15 8 15C6.14348 15 4.36301 14.2625 3.05025 12.9497C1.7375 11.637 1 9.85651 1 8C1 6.14348 1.7375 4.36301 3.05025 3.05025C4.36301 1.7375 6.14348 1 8 1ZM8 10.3333C7.76794 10.3333 7.54538 10.4255 7.38128 10.5896C7.21719 10.7537 7.125 10.9763 7.125 11.2083C7.125 11.4404 7.21719 11.663 7.38128 11.8271C7.54538 11.9911 7.76794 12.0833 8 12.0833C8.23206 12.0833 8.45462 11.9911 8.61872 11.8271C8.78281 11.663 8.875 11.4404 8.875 11.2083C8.875 10.9763 8.78281 10.7537 8.61872 10.5896C8.45462 10.4255 8.23206 10.3333 8 10.3333ZM8 3.91667C7.86347 3.91662 7.73125 3.96447 7.62636 4.05187C7.52148 4.13928 7.45057 4.2607 7.426 4.395L7.41667 4.5V8.58333L7.426 8.68833C7.45035 8.82283 7.52116 8.9445 7.62607 9.03212C7.73097 9.11974 7.86332 9.16773 8 9.16773C8.13668 9.16773 8.26903 9.11974 8.37393 9.03212C8.47884 8.9445 8.54965 8.82283 8.574 8.68833L8.58333 8.58333V4.5L8.574 4.395C8.54942 4.2607 8.47852 4.13928 8.37364 4.05187C8.26875 3.96447 8.13653 3.91662 8 3.91667Z" fill="#DD6B20"/>
</svg>