<svg width="28" height="28" viewBox="0 0 28 28" fill="none" xmlns="http://www.w3.org/2000/svg">
    <path d="M19.8959 26.0938H8.10587C4.95587 26.0938 2.95337 24.215 2.77337 21.0763L2.18837 11.795C2.09837 10.3888 2.58212 9.03875 3.54962 8.015C4.50587 6.99125 5.85587 6.40625 7.25087 6.40625C7.61087 6.40625 7.95962 6.1925 8.12837 5.855L8.93837 4.24625C9.60212 2.93 11.2671 1.90625 12.7184 1.90625H15.2946C16.7459 1.90625 18.3996 2.93 19.0634 4.235L19.8734 5.8775C20.0421 6.1925 20.3796 6.40625 20.7509 6.40625C22.1459 6.40625 23.4959 6.99125 24.4521 8.015C25.4196 9.05 25.9034 10.3888 25.8134 11.795L25.2284 21.0875C25.0259 24.2712 23.0796 26.0938 19.8959 26.0938ZM12.7184 3.59375C11.8859 3.59375 10.8284 4.24625 10.4459 5L9.63587 6.62C9.16337 7.53125 8.25212 8.09375 7.25087 8.09375C6.30587 8.09375 5.42837 8.47625 4.77587 9.1625C4.13462 9.84875 3.80837 10.7487 3.87587 11.6825L4.46087 20.975C4.59587 23.2475 5.82212 24.4062 8.10587 24.4062H19.8959C22.1684 24.4062 23.3946 23.2475 23.5409 20.975L24.1259 11.6825C24.1821 10.7487 23.8671 9.84875 23.2259 9.1625C22.5734 8.47625 21.6959 8.09375 20.7509 8.09375C19.7496 8.09375 18.8384 7.53125 18.3659 6.6425L17.5446 5C17.1734 4.2575 16.1159 3.605 15.2834 3.605H12.7184V3.59375Z" fill="white"/>
    <path d="M15.6875 10.3438H12.3125C11.8512 10.3438 11.4688 9.96125 11.4688 9.5C11.4688 9.03875 11.8512 8.65625 12.3125 8.65625H15.6875C16.1487 8.65625 16.5312 9.03875 16.5312 9.5C16.5312 9.96125 16.1487 10.3438 15.6875 10.3438Z" fill="white"/>
    <path d="M14 21.5938C11.5138 21.5938 9.5 19.58 9.5 17.0938C9.5 14.6075 11.5138 12.5938 14 12.5938C16.4862 12.5938 18.5 14.6075 18.5 17.0938C18.5 19.58 16.4862 21.5938 14 21.5938ZM14 14.2812C12.4475 14.2812 11.1875 15.5412 11.1875 17.0938C11.1875 18.6462 12.4475 19.9062 14 19.9062C15.5525 19.9062 16.8125 18.6462 16.8125 17.0938C16.8125 15.5412 15.5525 14.2812 14 14.2812Z" fill="white"/>
</svg>
