<svg width="16" height="16" viewBox="0 0 16 16" fill="none" xmlns="http://www.w3.org/2000/svg">
    <path fill-rule="evenodd" clip-rule="evenodd" d="M0.833008 8.00004C0.833008 4.05723 4.05687 0.833374 7.99967 0.833374C11.9425 0.833374 15.1663 4.05723 15.1663 8.00004C15.1663 11.9429 11.9425 15.1667 7.99967 15.1667C4.05687 15.1667 0.833008 11.9429 0.833008 8.00004ZM7.99967 1.83337C4.60915 1.83337 1.83301 4.60952 1.83301 8.00004C1.83301 11.3906 4.60915 14.1667 7.99967 14.1667C11.3902 14.1667 14.1663 11.3906 14.1663 8.00004C14.1663 4.60952 11.3902 1.83337 7.99967 1.83337Z" fill="#202327"/>
    <path fill-rule="evenodd" clip-rule="evenodd" d="M7.99967 4.73337C8.33105 4.73337 8.59967 5.002 8.59967 5.33337V8.66671C8.59967 8.99808 8.33105 9.26671 7.99967 9.26671C7.6683 9.26671 7.39967 8.99808 7.39967 8.66671V5.33337C7.39967 5.002 7.6683 4.73337 7.99967 4.73337Z" fill="#202327"/>
    <path fill-rule="evenodd" clip-rule="evenodd" d="M7.24601 10.6667C7.24601 10.2525 7.5818 9.91671 7.99601 9.91671H8.002C8.41621 9.91671 8.752 10.2525 8.752 10.6667C8.752 11.0809 8.41621 11.4167 8.002 11.4167H7.99601C7.5818 11.4167 7.24601 11.0809 7.24601 10.6667Z" fill="#202327"/>
</svg>