<svg width="25" height="24" viewBox="0 0 25 24" fill="none" xmlns="http://www.w3.org/2000/svg">
    <path d="M12.6667 14.17C10.5367 14.17 8.79668 12.44 8.79668 10.3C8.79668 8.16 10.5367 6.44 12.6667 6.44C14.7967 6.44 16.5367 8.17 16.5367 10.31C16.5367 12.45 14.7967 14.17 12.6667 14.17ZM12.6667 7.94C11.3667 7.94 10.2967 9 10.2967 10.31C10.2967 11.62 11.3567 12.68 12.6667 12.68C13.9767 12.68 15.0367 11.62 15.0367 10.31C15.0367 9 13.9667 7.94 12.6667 7.94Z" fill="#7B61FF"/>
    <path d="M12.6667 22.76C11.1867 22.76 9.69668 22.2 8.53668 21.09C5.58668 18.25 2.32668 13.72 3.55668 8.33C4.66668 3.44 8.93668 1.25 12.6667 1.25C12.6667 1.25 12.6667 1.25 12.6767 1.25C16.4067 1.25 20.6767 3.44 21.7867 8.34C23.0067 13.73 19.7467 18.25 16.7967 21.09C15.6367 22.2 14.1467 22.76 12.6667 22.76ZM12.6667 2.75C9.75668 2.75 6.01668 4.3 5.02668 8.66C3.94668 13.37 6.90668 17.43 9.58668 20C11.3167 21.67 14.0267 21.67 15.7567 20C18.4267 17.43 21.3867 13.37 20.3267 8.66C19.3267 4.3 15.5767 2.75 12.6667 2.75Z" fill="#7B61FF"/>
</svg>