<svg width="64" height="64" viewBox="0 0 64 64" fill="none" xmlns="http://www.w3.org/2000/svg">
    <path d="M23.992 39.3294L24.2316 39.2776C24.3464 39.2925 24.4563 39.3334 24.5529 39.3974C24.6494 39.4614 24.73 39.5467 24.7884 39.6466C25.3128 40.3912 25.8502 41.1229 26.3812 41.8545C26.3989 41.889 26.4276 41.9167 26.4628 41.9331C26.4979 41.9495 26.5375 41.9537 26.5754 41.9451L27.9739 41.7833L29.3983 41.589C29.4758 41.5718 29.5562 41.5722 29.6335 41.5901C29.7108 41.608 29.7831 41.6431 29.8451 41.6926C29.9106 41.7548 29.9712 41.8219 30.0264 41.8933L30.0782 42.1329C30.0497 42.2523 30.0062 42.3676 29.9487 42.4761L28.2523 44.8264C28.2339 44.8493 28.2239 44.8779 28.2239 44.9073C28.2239 44.9367 28.2339 44.9653 28.2523 44.9882L29.4955 47.5781C29.5615 47.6961 29.5844 47.8335 29.5602 47.9666C29.5441 48.0473 29.5105 48.1235 29.4618 48.1898C29.413 48.2562 29.3503 48.311 29.2781 48.3505C29.2059 48.39 29.1259 48.4132 29.0438 48.4185C28.9616 48.4237 28.8793 48.4109 28.8027 48.3809C27.8962 48.0766 26.9833 47.7917 26.0768 47.4939C26.0513 47.4801 26.0217 47.4758 25.9932 47.4817C25.9648 47.4876 25.9394 47.5034 25.9215 47.5263L24.5294 48.8212C24.2898 49.0543 24.0503 49.2939 23.7978 49.5205C23.735 49.5822 23.6578 49.6273 23.5733 49.6518C23.4887 49.6763 23.3993 49.6794 23.3133 49.6608C23.2272 49.6421 23.1472 49.6024 23.0803 49.5451C23.0134 49.4879 22.9618 49.4149 22.9302 49.3327C22.8815 49.1846 22.8617 49.0286 22.8719 48.873C22.8719 47.9795 22.8719 47.0795 22.8719 46.1796C22.8753 46.1557 22.8709 46.1314 22.8592 46.1104C22.8475 46.0893 22.8292 46.0727 22.8071 46.063L21.9849 45.6227L20.2238 44.671C20.1274 44.6238 20.0478 44.5483 19.9957 44.4545C19.9436 44.3607 19.9215 44.2532 19.9324 44.1465C19.9317 44.0397 19.9653 43.9356 20.0282 43.8493C20.0912 43.7631 20.1801 43.6993 20.282 43.6674C20.5022 43.5832 20.7288 43.5185 20.9295 43.4408L22.1208 43.0782C22.4381 42.9746 22.7683 42.8645 23.0726 42.7674C23.1008 42.7585 23.1257 42.7415 23.1441 42.7184C23.1625 42.6954 23.1737 42.6674 23.1762 42.6379C23.3381 41.7315 23.5064 40.8315 23.6618 39.9251C23.665 39.8065 23.6966 39.6905 23.7541 39.5869C23.8116 39.4832 23.8932 39.3949 23.992 39.3294Z" fill="#FDC831"/>
    <path d="M39.9587 30.2974H40.3019C40.4566 30.3539 40.5959 30.4461 40.7084 30.5664C40.8209 30.6868 40.9034 30.8319 40.9494 30.9901C41.4479 32.175 41.9594 33.3599 42.4579 34.5447C42.4752 34.5949 42.5074 34.6386 42.5502 34.6698C42.5931 34.7011 42.6445 34.7184 42.6975 34.7195L44.6917 34.8944L46.7183 35.0756C46.8319 35.0778 46.9436 35.105 47.0455 35.1553C47.1474 35.2057 47.2368 35.278 47.3075 35.367C47.3787 35.4706 47.424 35.5871 47.4887 35.7037V36.0468C47.4084 36.2 47.3106 36.3434 47.1974 36.4742C46.1744 37.3871 45.1449 38.2871 44.109 39.1871C44.0751 39.2113 44.0498 39.2457 44.037 39.2854C44.0242 39.325 44.0245 39.3677 44.0378 39.4072C44.3421 40.7021 44.6399 42.0424 44.9442 43.3632C45.0059 43.5459 45.0059 43.7438 44.9442 43.9265C44.8966 44.034 44.8258 44.1297 44.7369 44.2066C44.6479 44.2835 44.543 44.3398 44.4297 44.3714C44.3165 44.4029 44.1976 44.409 44.0817 44.3892C43.9658 44.3694 43.8557 44.3241 43.7594 44.2567C42.6069 43.5574 41.4414 42.8646 40.2825 42.1719C40.2488 42.1466 40.2079 42.133 40.1659 42.133C40.1239 42.133 40.083 42.1466 40.0494 42.1719C39.2789 42.6445 38.4955 43.1042 37.7185 43.5704C37.3041 43.8164 36.9027 44.0689 36.4818 44.302C36.3736 44.3786 36.2472 44.4254 36.1152 44.4378C35.9833 44.4502 35.8504 44.4277 35.7298 44.3727C35.6092 44.3176 35.5052 44.2319 35.4281 44.1241C35.351 44.0162 35.3036 43.8901 35.2905 43.7581C35.2737 43.5402 35.2956 43.321 35.3553 43.1107C35.6337 41.8676 35.9186 40.6309 36.2034 39.3878C36.2175 39.3552 36.22 39.3189 36.2106 39.2848C36.2012 39.2506 36.1804 39.2207 36.1516 39.2C35.815 38.9151 35.5042 38.6238 35.1545 38.3324C34.4488 37.6849 33.7366 37.0957 33.0309 36.4677C32.9128 36.3721 32.8261 36.2432 32.7823 36.0977C32.7384 35.9522 32.7393 35.7969 32.7848 35.6519C32.8217 35.5034 32.9039 35.3701 33.0199 35.2703C33.1358 35.1706 33.28 35.1093 33.4323 35.0951C33.756 35.0562 34.0798 35.0303 34.4164 35.0044L36.1711 34.8426L37.5825 34.7131C37.6251 34.7132 37.6666 34.6993 37.7005 34.6736C37.7344 34.6478 37.7589 34.6117 37.7703 34.5706C38.2753 33.3728 38.7933 32.1815 39.2983 30.9772C39.3473 30.82 39.4326 30.6765 39.5474 30.5584C39.6621 30.4403 39.803 30.3509 39.9587 30.2974Z" fill="#FDC831"/>
    <path d="M37.2708 47.8244L37.3874 47.8697C37.4326 47.9085 37.4679 47.9576 37.4904 48.0127C37.5129 48.0679 37.522 48.1276 37.5168 48.187C37.5168 48.6532 37.5492 49.1193 37.5686 49.592C37.5662 49.6115 37.5707 49.6313 37.5814 49.6479C37.592 49.6644 37.6081 49.6767 37.6269 49.6826L38.2744 49.9999L38.9218 50.3236C38.9592 50.3404 38.9928 50.3645 39.0206 50.3945C39.0484 50.4246 39.0699 50.4599 39.0837 50.4984C39.0901 50.5435 39.0901 50.5893 39.0837 50.6344L39.0449 50.7509C38.9988 50.7951 38.9464 50.8322 38.8895 50.861L37.4845 51.379C37.4706 51.3838 37.4584 51.3924 37.4492 51.4039C37.44 51.4153 37.4343 51.4291 37.4327 51.4437C37.3679 51.9358 37.2967 52.4214 37.2255 52.907C37.2224 52.978 37.1923 53.0452 37.1413 53.0948C37.1118 53.1251 37.0759 53.1485 37.0362 53.1633C36.9966 53.178 36.9541 53.1838 36.9119 53.18C36.8698 53.1763 36.829 53.1632 36.7925 53.1418C36.756 53.1203 36.7248 53.091 36.701 53.0559L35.7881 51.897C35.7769 51.8885 35.7633 51.884 35.7493 51.884C35.7353 51.884 35.7216 51.8885 35.7104 51.897L34.7327 52.0653L34.2212 52.1559C34.1765 52.1648 34.1303 52.1623 34.0868 52.1486C34.0433 52.1349 34.0039 52.1105 33.9723 52.0776C33.9407 52.0447 33.9179 52.0044 33.906 51.9604C33.894 51.9164 33.8934 51.8701 33.904 51.8257C33.9251 51.7487 33.9602 51.6763 34.0076 51.6121L34.7781 50.4596C34.7781 50.4596 34.7781 50.4143 34.7781 50.3884L34.5579 49.9675L34.0723 49.0546C34.0422 49.0083 34.0262 48.9544 34.0262 48.8992C34.0262 48.844 34.0422 48.79 34.0723 48.7438C34.104 48.6983 34.1491 48.6638 34.2014 48.6452C34.2536 48.6266 34.3104 48.6249 34.3637 48.6402C34.4802 48.6402 34.5968 48.705 34.7068 48.7373L35.3543 48.9121L35.8529 49.0481C35.8852 49.0481 35.9047 49.0481 35.9306 49.0481C36.2608 48.7114 36.578 48.3683 36.9147 48.0251C36.9501 47.9624 37.002 47.9105 37.0648 47.8751C37.1275 47.8397 37.1988 47.8222 37.2708 47.8244Z" fill="#FDC831"/>
    <path d="M30.3301 22.845C25.1504 24.3859 21.1556 27.1506 19.9707 29.7275L21.8483 36.0403C23.0332 33.4504 27.0281 30.6987 32.2078 29.1642C37.3875 27.6297 42.2435 27.7527 44.6456 29.2678L42.7679 22.955C40.3658 21.44 35.5099 21.3105 30.3301 22.845Z" fill="#171838"/>
    <path d="M19.7963 29.0995C20.9877 26.5097 24.9761 23.7709 30.1558 22.2364C35.3355 20.7019 40.1721 20.8314 42.5806 22.3335L48.2913 15.2373L27.3069 12L11.334 26.555L19.6928 29.1449L19.7963 29.0995Z" fill="#171838"/>
    <path opacity="0.1" d="M16.5137 21.8415L22.2955 26.1601C22.2955 26.1601 27.1645 22.5602 30.1558 22.2364L27.1515 12.1489L16.5137 21.8415Z" fill="white"/>
    <path opacity="0.1" d="M22.4453 26.788L24.323 33.1202C24.323 33.1202 28.2077 30.1095 32.0278 29.2354L30.1501 22.9097C30.1501 22.9097 25.197 24.4571 22.4453 26.7945" fill="white"/>
    <path d="M13.043 25.901V32.0778H13.5868V25.3831L13.043 25.901Z" fill="#DF863E"/>
    <path d="M12.3428 34.0722H14.3565C14.3565 34.0722 14.4601 31.6378 13.3464 31.6248C12.2328 31.6119 12.3428 34.0722 12.3428 34.0722Z" fill="#D38340"/>
    <path d="M15.1735 41.0776C15.1735 41.0776 14.9792 34.2922 14.3577 34.072H12.2728C11.6513 34.2922 11.457 41.0776 11.457 41.0776C12.0498 41.3043 12.6808 41.4142 13.3153 41.4013C13.9497 41.4142 14.5807 41.3043 15.1735 41.0776Z" fill="#FDC831"/>
    <path opacity="0.1" d="M12.7637 31.9355C12.6748 32.6442 12.6294 33.3578 12.6277 34.0721C12.2926 36.4582 12.1044 38.8627 12.0645 41.2719C12.3551 41.3316 12.6492 41.3727 12.945 41.3949L12.8479 34.0138C12.8252 33.2552 12.8534 32.496 12.9321 31.7412L12.7637 31.9355Z" fill="white"/>
</svg>