<svg width="180" height="165" viewBox="0 0 180 165" fill="none"
    xmlns="http://www.w3.org/2000/svg">
    <g clip-path="url(#clip0_1_22343)">
        <path d="M19.3548 164.881C19.3548 164.881 -4.77279 102.877 12.5905 89.0716C24.1951 79.8424 36.4964 100.186 51.1797 89.424C64.2503 79.8424 60.0958 50.692 80.9424 46.6629C104.382 42.1337 109.536 96.5024 128.777 89.0716C152.119 80.0543 175.336 98.3601 155.272 165.002L19.3548 164.881Z" fill="#EBF3FA"/>
        <path d="M35.0368 75.5263C33.0434 81.0319 24.8079 78.214 26.6093 72.6467C28.5956 67.1401 36.8372 69.9601 35.0368 75.5263Z" fill="#EBF3FA"/>
        <path d="M31.494 33.3832C33.3561 22.4963 45.3762 17.2928 54.7328 23.0864C66.9198 30.9411 60.8991 48.8048 49.0649 53.6395C43.6062 55.536 37.0902 60.2989 34.9734 65.0103C33.6229 67.7515 31.492 66.4178 31.8893 63.5716C34.654 50.8488 42.4084 50.97 49.5016 43.4285C58.7439 30.1217 41.7846 24.4504 33.5087 34.335C32.7404 35.1403 31.2626 34.5331 31.494 33.3832Z" fill="#EBF3FA"/>
        <path d="M136.111 77.9679C135.708 80.3415 132.113 79.7953 132.439 77.4096C132.844 75.03 136.432 75.5773 136.111 77.9679Z" fill="#F99746"/>
        <path d="M131.503 61.1456C131.451 56.6006 135.986 53.6264 140.262 55.2952C145.847 57.5961 144.715 65.2679 140.224 68.0811C138.13 69.2437 135.813 71.6427 135.297 73.7051C134.949 74.9161 133.975 74.5261 133.924 73.3418C134.106 67.9891 137.295 67.478 139.639 63.9103C142.433 57.8553 135.055 56.7799 132.4 61.3805C132.144 61.7681 131.495 61.6288 131.503 61.1456Z" fill="#F99746"/>
        <path d="M44.7249 151.862C46.3412 155.594 40.8272 158.091 39.0862 154.414C37.4699 150.682 42.9827 148.185 44.7249 151.862Z" fill="white"/>
        <path d="M22.847 132.221C18.6065 125.825 22.2037 117.469 29.6998 115.943C39.6118 114.115 45.0773 126.026 41.3916 134.108C39.5343 137.665 38.5044 143.18 39.6784 146.573C40.3012 148.603 38.588 148.943 37.4309 147.313C32.7675 139.563 36.75 135.929 36.7464 128.731C35.0829 117.59 23.7957 122.797 24.3155 131.741C24.3118 132.514 23.2771 132.908 22.847 132.221Z" fill="white"/>
        <path d="M93.9736 75.6777C94.0148 76.6308 94.0863 77.5451 94.199 78.394C94.1624 78.828 94.198 79.2651 94.3044 79.6874C96.1325 80.1373 97.8442 80.9699 99.3264 82.13C101.036 81.7498 103.308 80.7701 106.327 78.847C106.113 77.8321 106.029 76.2336 106.029 74.4122C106.029 73.946 106.029 73.4652 106.046 72.976C102.503 74.5357 98.5256 75.2284 95.556 75.4937C95.0339 75.5944 94.5049 75.6559 93.9736 75.6777Z" fill="#F99746"/>
        <path d="M67.8596 84.1185C67.8596 84.3329 67.8596 84.5606 67.8463 84.7967C68.1092 83.2938 68.3588 81.8358 68.5914 80.4455C67.839 81.8842 67.9093 83.6717 67.8645 83.6983L58.1596 79.5809C58.3462 79.3302 58.5304 79.0843 58.7145 78.8397C58.4504 79.1505 58.1875 79.4674 57.9258 79.7904C61.6744 84.3668 66.9303 84.1682 67.8596 84.1185Z" fill="#F99746"/>
        <path d="M99.3257 82.13C97.8435 80.9698 96.1318 80.1373 94.3037 79.6874C94.6236 81.0631 95.7297 82.9329 99.3257 82.13Z" fill="#F99746"/>
        <path d="M63.3578 131.815C67.556 118.281 74.8873 103.163 75.1369 102.65C76.6236 99.2127 78.1332 96.4019 79.5907 94.5019C81.997 90.7792 85.1641 87.1146 88.1676 84.0302C87.3195 81.3332 88.8485 79.6923 89.7923 79.2406C80.6836 80.2385 68.2805 93.8322 64.4337 105.023C65.4927 100.214 67.0011 92.9881 67.6008 87.8146C67.6008 87.8146 60.3119 88.0835 55.8484 82.3457C55.789 82.2706 55.7272 82.1967 55.6788 82.1216C50.9475 88.184 39.9002 104.264 39.9111 122.921C40.1111 129.982 44.9816 140.419 58.5563 140.419H58.6011C60.4864 138.326 62.1996 135.535 63.3578 131.815Z" fill="url(#paint0_linear_1_22343)"/>
        <path d="M88.9619 42.3784C88.8807 42.4172 88.7995 42.4547 88.7196 42.4995C88.2832 42.7331 87.7939 42.85 87.299 42.8388C86.8041 42.8275 86.3206 42.6885 85.8953 42.4353C85.2702 45.8674 85.4616 49.5476 85.5464 50.7066C86.2604 49.3418 86.8963 47.9376 87.451 46.5007C87.8643 45.0952 88.369 43.7182 88.9619 42.3784Z" fill="#163560"/>
        <path d="M94.9705 60.6308C99.4013 62.5527 103.53 64.9432 106.783 62.8555L106.876 62.7949C110.674 59.9853 110.298 55.2684 109.598 51.8546C104.188 47.8715 104.244 42.3239 104.244 42.3239C100.318 42.8083 92.3704 41.4313 88.2061 44.2421C88.4654 43.5773 88.7344 42.9499 89.0143 42.3529L88.9622 42.3783C88.3695 43.7165 87.8648 45.0919 87.4513 46.4958C86.8966 47.9327 86.2607 49.3369 85.5467 50.7017C83.7099 54.3069 81.8695 57.3925 82.2124 60.8161C82.227 60.695 82.2439 60.586 82.2633 60.4746C86.4542 57.4579 90.8426 58.8409 94.9705 60.6308ZM87.4453 51.754C87.357 51.6208 87.3102 51.4645 87.3109 51.3047C87.3115 51.1449 87.3596 50.9889 87.4489 50.8564C87.5383 50.7239 87.665 50.6209 87.8129 50.5604C87.9609 50.4999 88.1235 50.4846 88.2801 50.5164C88.4368 50.5483 88.5805 50.6259 88.693 50.7394C88.8055 50.8529 88.8819 50.9972 88.9123 51.154C88.9428 51.3109 88.926 51.4732 88.8642 51.6206C88.8023 51.7679 88.6981 51.8936 88.5648 51.9817C88.3861 52.0998 88.1678 52.1422 87.9579 52.0995C87.748 52.0568 87.5636 51.9326 87.4453 51.754ZM94.3223 52.1113C94.2344 51.9782 94.1879 51.8221 94.1887 51.6627C94.1896 51.5033 94.2377 51.3476 94.3269 51.2155C94.4162 51.0834 94.5427 50.9807 94.6903 50.9203C94.838 50.86 95.0002 50.8448 95.1565 50.8766C95.3128 50.9084 95.4562 50.9857 95.5686 51.0989C95.6809 51.2121 95.7571 51.3561 95.7877 51.5126C95.8182 51.6691 95.8016 51.8311 95.74 51.9782C95.6785 52.1253 95.5747 52.2508 95.4418 52.339C95.3534 52.3976 95.2542 52.4382 95.1501 52.4585C95.0459 52.4788 94.9388 52.4784 94.8348 52.4573C94.7308 52.4361 94.632 52.3947 94.544 52.3353C94.4561 52.2759 94.3807 52.1998 94.3223 52.1113ZM93.353 47.2539C93.3569 47.218 93.3679 47.1832 93.3853 47.1515C93.4028 47.1199 93.4263 47.092 93.4546 47.0695C93.4828 47.047 93.5153 47.0303 93.55 47.0203C93.5848 47.0104 93.6212 47.0075 93.6571 47.0117C96.4438 47.3617 97.6978 49.2642 97.7499 49.3453C97.7889 49.4062 97.8021 49.4801 97.7867 49.5507C97.7712 49.6213 97.7284 49.6829 97.6675 49.722C97.6066 49.761 97.5327 49.7742 97.462 49.7588C97.3913 49.7433 97.3297 49.7005 97.2907 49.6396C97.2797 49.6214 96.1191 47.8679 93.5893 47.5518C93.5182 47.5436 93.4533 47.5077 93.4086 47.4519C93.3639 47.3961 93.3431 47.325 93.3506 47.2539H93.353ZM91.1855 51.8098C91.2245 51.8185 91.2613 51.8348 91.294 51.8578C91.3267 51.8808 91.3545 51.91 91.3759 51.9437C91.3973 51.9775 91.4118 52.0151 91.4186 52.0544C91.4254 52.0938 91.4244 52.1341 91.4157 52.1731C91.3841 52.3172 90.6015 55.7056 88.9925 56.8343C88.8095 56.9626 88.6096 57.1479 88.6981 57.3017C88.9476 57.7389 90.4464 58.0828 91.429 57.642C91.4658 57.6235 91.506 57.6125 91.5471 57.6099C91.5882 57.6073 91.6295 57.613 91.6683 57.6267C91.7072 57.6405 91.7429 57.6619 91.7732 57.6898C91.8036 57.7177 91.8279 57.7514 91.8449 57.789C91.8618 57.8266 91.871 57.8672 91.8718 57.9083C91.8726 57.9495 91.8651 57.9905 91.8497 58.0287C91.8343 58.0669 91.8113 58.1016 91.7821 58.1306C91.7529 58.1597 91.7181 58.1826 91.6798 58.1979C91.2547 58.3761 90.797 58.4632 90.3361 58.4534C89.402 58.4534 88.4666 58.1313 88.1662 57.6057C88.045 57.4047 87.8669 56.8791 88.6423 56.3353C90.0623 55.3411 90.8171 52.0725 90.8232 52.0398C90.8422 51.9622 90.8906 51.8949 90.9581 51.8521C91.0256 51.8092 91.107 51.794 91.1855 51.8098ZM90.5603 45.8273C90.5737 45.7935 90.5937 45.7627 90.6192 45.7368C90.6446 45.7108 90.675 45.6902 90.7086 45.6762C90.7422 45.6622 90.7782 45.655 90.8146 45.6551C90.851 45.6552 90.8869 45.6626 90.9204 45.6768C90.9539 45.6911 90.9842 45.7118 91.0095 45.7379C91.0348 45.764 91.0547 45.795 91.0678 45.8288C91.081 45.8627 91.0873 45.8989 91.0863 45.9353C91.0852 45.9716 91.0769 46.0074 91.0619 46.0405C91.0231 46.1313 90.0829 48.2724 87.3726 48.896C87.3523 48.9008 87.3316 48.9033 87.3108 48.9033C87.2441 48.9028 87.1799 48.878 87.1303 48.8334C87.0808 48.7888 87.0493 48.7276 87.0418 48.6613C87.0343 48.5951 87.0514 48.5284 87.0898 48.4739C87.1283 48.4194 87.1853 48.3809 87.2502 48.3656C87.9543 48.2123 88.6159 47.9058 89.188 47.4679C89.7601 47.0301 90.2286 46.4716 90.5603 45.8322V45.8273Z" fill="#F99746"/>
        <path d="M94.2537 66.7125C95.5404 66.6379 96.8217 66.4879 98.0908 66.2632C97.7855 65.2763 96.4261 63.8618 94.6887 62.6411C90.9982 60.0483 85.6017 58.3299 84.9766 63.4452C86.657 66.3286 90.568 66.9063 94.2537 66.7125ZM87.5572 60.8924C89.8338 61.0995 90.5608 62.738 90.5862 62.807C90.6012 62.8401 90.6095 62.8758 90.6104 62.9122C90.6114 62.9485 90.6051 62.9846 90.5919 63.0185C90.5787 63.0523 90.5588 63.0832 90.5335 63.1093C90.5082 63.1354 90.4779 63.1561 90.4445 63.1703C90.4103 63.1846 90.3737 63.192 90.3366 63.1921C90.2834 63.1923 90.2313 63.1769 90.1868 63.1479C90.1422 63.1188 90.1071 63.0774 90.0858 63.0286C90.0616 62.9717 89.4449 61.6178 87.5027 61.441C87.432 61.4328 87.3673 61.3973 87.3224 61.3421C87.2776 61.2869 87.2561 61.2163 87.2626 61.1455C87.269 61.0746 87.303 61.0091 87.3571 60.9629C87.4113 60.9168 87.4814 60.8936 87.5524 60.8984L87.5572 60.8924Z" fill="#F99746"/>
        <path d="M95.4415 52.3396C95.5744 52.2515 95.6782 52.1258 95.7398 51.9787C95.8014 51.8315 95.8179 51.6694 95.7874 51.5129C95.7569 51.3563 95.6806 51.2123 95.5683 51.099C95.456 50.9858 95.3126 50.9084 95.1563 50.8766C95 50.8447 94.8377 50.86 94.6901 50.9203C94.5424 50.9807 94.416 51.0835 94.3267 51.2157C94.2374 51.3479 94.1893 51.5035 94.1885 51.6631C94.1877 51.8226 94.2341 51.9788 94.322 52.1119C94.3805 52.2004 94.4558 52.2766 94.5438 52.336C94.6317 52.3954 94.7305 52.4368 94.8345 52.458C94.9385 52.4791 95.0456 52.4796 95.1498 52.4593C95.254 52.439 95.3531 52.3983 95.4415 52.3396Z" fill="#C16256"/>
        <path d="M88.5645 51.9824C88.6978 51.8943 88.802 51.7685 88.8638 51.6211C88.9257 51.4737 88.9425 51.3113 88.912 51.1543C88.8815 50.9974 88.8052 50.853 88.6927 50.7395C88.5801 50.626 88.4364 50.5483 88.2798 50.5165C88.1231 50.4846 87.9606 50.4999 87.8126 50.5604C87.6647 50.621 87.538 50.724 87.4486 50.8566C87.3592 50.9891 87.3112 51.1452 87.3106 51.3051C87.3099 51.4649 87.3567 51.6214 87.4449 51.7547C87.5633 51.9333 87.7476 52.0576 87.9576 52.1003C88.1675 52.143 88.3858 52.1006 88.5645 51.9824Z" fill="#C16256"/>
        <path d="M90.8192 52.0447C90.8119 52.0774 90.0571 55.346 88.6383 56.3402C87.8629 56.8816 88.047 57.4096 88.1621 57.6106C88.4626 58.1374 89.398 58.4583 90.3321 58.4583C90.793 58.4681 91.2507 58.381 91.6758 58.2028C91.714 58.1875 91.7488 58.1646 91.778 58.1356C91.8072 58.1065 91.8302 58.0718 91.8457 58.0336C91.8611 57.9954 91.8686 57.9544 91.8678 57.9132C91.867 57.8721 91.8578 57.8315 91.8409 57.7939C91.8239 57.7563 91.7995 57.7226 91.7692 57.6947C91.7389 57.6668 91.7032 57.6454 91.6643 57.6316C91.6255 57.6179 91.5842 57.6122 91.5431 57.6148C91.5019 57.6174 91.4618 57.6284 91.425 57.6469C90.4424 58.0877 88.9436 57.7438 88.694 57.3066C88.6056 57.1528 88.8055 56.9675 88.9885 56.8392C90.6023 55.7105 91.385 52.3221 91.4116 52.178C91.4204 52.139 91.4214 52.0987 91.4146 52.0593C91.4077 52.02 91.3932 51.9824 91.3719 51.9486C91.3505 51.9149 91.3227 51.8857 91.29 51.8627C91.2573 51.8397 91.2204 51.8234 91.1814 51.8147C91.103 51.7989 91.0216 51.8141 90.9541 51.857C90.8866 51.8998 90.8382 51.9671 90.8192 52.0447Z" fill="#C16256"/>
        <path d="M114.365 59.702C114.365 59.7081 114.365 59.7129 114.365 59.719C114.366 59.7129 114.366 59.7069 114.365 59.7008V59.702Z" fill="#E57D61"/>
        <path d="M105.65 40.7254C104.396 40.9312 103.063 41.0293 101.852 40.8622C98.1932 40.3596 92.9239 40.5062 89.0093 42.353C88.7294 42.95 88.4605 43.5773 88.2012 44.2422C92.3703 41.4314 100.317 42.8071 104.239 42.3239C104.239 42.3239 104.183 47.8716 109.593 51.8546C109.243 50.1483 108.812 48.7677 108.779 48.1138C105.982 44.5474 105.644 40.7266 105.644 40.7266L105.65 40.7254Z" fill="#F99746"/>
        <path d="M88.7202 42.4946C88.8001 42.4546 88.8813 42.4171 88.9625 42.3735L89.0146 42.348C92.9244 40.5012 98.1936 40.3547 101.857 40.8573C103.069 41.0244 104.402 40.9263 105.656 40.7204C105.656 40.7204 105.994 44.5388 108.79 48.1076L112.425 51.4052C113.194 50.6096 114.197 50.1664 115.25 50.2657C116.103 50.3569 116.889 50.7728 117.443 51.427C117.443 51.427 121.105 39.9817 110.714 36.6236C110.259 31.6717 104.945 32.316 99.4851 28.19C92.3949 22.8301 85.2926 26.3541 83.3565 31.5651C81.739 35.9248 83.3395 40.982 85.9008 42.4268C86.3252 42.6796 86.8076 42.8188 87.3016 42.8306C87.7955 42.8425 88.2841 42.7268 88.7202 42.4946Z" fill="#163560"/>
        <path d="M82.9196 64.0992L82.3793 64.2675C83.3328 69.4422 87.2426 75.9514 93.973 75.6777C94.5043 75.6559 95.0332 75.5944 95.5553 75.4937C98.5249 75.2285 102.503 74.5358 106.045 72.976C111.101 70.7525 115.27 66.761 114.364 59.7214C114.364 59.7214 114.364 59.7105 114.364 59.7044C112.267 59.507 110.764 57.2351 111.01 54.6315C111.105 53.4287 111.605 52.2935 112.427 51.4102L108.792 48.1125C108.825 48.7665 109.256 50.1471 109.606 51.8534C110.306 55.2672 110.682 59.9842 106.884 62.7937L106.792 62.8543C103.539 64.9421 99.4094 62.5515 94.9786 60.6296C90.8507 58.8397 86.4623 57.4568 82.2714 60.4734C82.2521 60.5848 82.2351 60.6974 82.2206 60.8149V60.8222C82.1638 61.2999 82.1451 61.7814 82.1648 62.2621L82.3248 62.233C83.729 61.9896 85.3089 63.3617 82.9196 64.0992ZM94.689 62.646C96.4265 63.8667 97.7859 65.2812 98.0912 66.2681C96.8221 66.4928 95.5408 66.6428 94.2541 66.7174C90.5672 66.9112 86.6562 66.3335 84.9769 63.4477C85.6009 58.3299 90.9985 60.0447 94.689 62.6411V62.646Z" fill="#163560"/>
        <path d="M115.251 50.2694C114.198 50.1701 113.191 50.6133 112.425 51.409C111.604 52.2918 111.105 53.4261 111.01 54.6278C110.768 57.2315 112.266 59.5034 114.364 59.7008C116.459 59.8934 118.354 57.9436 118.604 55.3411C118.75 53.8007 118.283 52.3766 117.444 51.4296C116.889 50.7757 116.104 50.3603 115.251 50.2694ZM117.032 56.5582C117.019 56.6287 116.981 56.6923 116.926 56.7381C116.871 56.7839 116.802 56.809 116.73 56.8089H116.675C116.596 56.7933 116.527 56.7472 116.481 56.6806C116.436 56.614 116.419 56.5321 116.433 56.4529C116.632 55.3714 116.655 54.5152 116.514 53.8819C114.795 54.3917 114.151 56.4734 114.143 56.4965C114.124 56.5596 114.085 56.615 114.032 56.6543C113.979 56.6935 113.915 56.7146 113.849 56.7144C113.82 56.7142 113.791 56.7097 113.764 56.7011C113.726 56.69 113.69 56.6714 113.658 56.6463C113.627 56.6213 113.601 56.5903 113.582 56.5552C113.563 56.5201 113.55 56.4816 113.546 56.4417C113.542 56.4019 113.546 56.3617 113.557 56.3233C113.588 56.2191 114.293 53.9194 116.305 53.3054C116.222 53.1492 116.107 53.0122 115.968 52.9034C115.12 52.2748 113.593 53.0644 113.577 53.0717C113.506 53.1064 113.424 53.112 113.349 53.0875C113.274 53.063 113.211 53.0103 113.174 52.9404C113.137 52.8704 113.128 52.7889 113.15 52.7128C113.172 52.6368 113.223 52.5722 113.291 52.5328C113.368 52.4916 115.162 51.5567 116.328 52.4117C116.637 52.6502 116.869 52.9758 116.992 53.3466V53.3539C117.274 54.1023 117.291 55.1728 117.032 56.5582Z" fill="#F99746"/>
        <path d="M116.994 53.3393C116.871 52.9685 116.64 52.6429 116.33 52.4044C115.164 51.5567 113.37 52.4868 113.294 52.5255C113.225 52.565 113.175 52.6295 113.153 52.7056C113.131 52.7816 113.139 52.8632 113.176 52.9331C113.213 53.003 113.276 53.0558 113.351 53.0803C113.427 53.1048 113.509 53.0991 113.58 53.0644C113.595 53.0572 115.118 52.2676 115.97 52.8961C116.11 53.0049 116.224 53.1419 116.307 53.2982C114.296 53.9121 113.591 56.2119 113.559 56.316C113.548 56.3544 113.544 56.3947 113.549 56.4345C113.553 56.4743 113.565 56.5129 113.584 56.548C113.603 56.5831 113.629 56.614 113.661 56.6391C113.692 56.6641 113.728 56.6827 113.766 56.6939C113.794 56.7024 113.822 56.7069 113.851 56.7072C113.917 56.7074 113.981 56.6863 114.035 56.647C114.088 56.6077 114.126 56.5524 114.146 56.4892C114.153 56.4662 114.797 54.3844 116.517 53.8746C116.657 54.5043 116.638 55.3642 116.435 56.4456C116.421 56.5249 116.438 56.6067 116.483 56.6733C116.529 56.74 116.599 56.7861 116.678 56.8016H116.732C116.804 56.8017 116.873 56.7767 116.929 56.7309C116.984 56.6851 117.021 56.6214 117.034 56.551C117.288 55.1656 117.276 54.095 116.995 53.3393H116.994Z" fill="#C16256"/>
        <path d="M87.507 61.4313C89.4455 61.6081 90.0658 62.962 90.0901 63.0189C90.1114 63.0677 90.1464 63.1091 90.191 63.1382C90.2356 63.1672 90.2877 63.1826 90.3409 63.1824C90.3779 63.1823 90.4145 63.1749 90.4487 63.1606C90.4822 63.1464 90.5124 63.1257 90.5378 63.0996C90.5631 63.0735 90.5829 63.0427 90.5961 63.0088C90.6093 62.975 90.6156 62.9388 90.6147 62.9025C90.6137 62.8662 90.6055 62.8304 90.5905 62.7973C90.5602 62.7283 89.8332 61.0898 87.5615 60.8827C87.4905 60.8779 87.4204 60.9011 87.3662 60.9472C87.3121 60.9934 87.2781 61.0589 87.2716 61.1297C87.2652 61.2006 87.2866 61.2711 87.3315 61.3264C87.3764 61.3816 87.4411 61.4171 87.5118 61.4252L87.507 61.4313Z" fill="#C16256"/>
        <path d="M67.8603 83.6983C67.91 83.6717 67.8397 81.8818 68.5873 80.4455C68.975 79.7032 69.582 79.0528 70.5379 78.7864C73.6287 77.9254 76.6662 74.2536 76.6056 74.0961C77.5748 76.5775 82.2867 71.8594 80.6814 70.9766C81.7585 69.9835 81.0339 68.8549 79.6879 68.2033C80.5881 67.3314 79.6261 66.296 78.3297 65.8782C79.7327 65.1407 80.897 64.7301 82.3752 64.2675L82.9155 64.0992C85.3048 63.3617 83.7249 61.9896 82.3098 62.2366L82.1498 62.2657C70.9911 64.2481 66.3107 68.7059 58.7043 78.8385C58.5202 79.0807 58.3408 79.3229 58.1494 79.5796L67.8603 83.6983Z" fill="#F99746"/>
        <path d="M87.0458 48.6962C87.0597 48.7562 87.0934 48.8098 87.1416 48.8482C87.1898 48.8867 87.2495 48.9078 87.3111 48.9081C87.3319 48.9081 87.3527 48.9056 87.3729 48.9008C90.0832 48.2772 91.0234 46.1361 91.0622 46.0453C91.0773 46.0122 91.0856 45.9764 91.0866 45.9401C91.0876 45.9037 91.0813 45.8675 91.0682 45.8336C91.055 45.7998 91.0351 45.7688 91.0098 45.7427C90.9845 45.7166 90.9542 45.6959 90.9207 45.6816C90.8873 45.6674 90.8513 45.66 90.8149 45.6599C90.7785 45.6598 90.7425 45.667 90.7089 45.681C90.6754 45.695 90.645 45.7156 90.6195 45.7416C90.594 45.7675 90.574 45.7983 90.5606 45.8321C90.23 46.4733 89.762 47.0337 89.1898 47.4733C88.6176 47.9129 87.9555 48.2209 87.2505 48.3753C87.1813 48.3915 87.1211 48.4341 87.0828 48.4941C87.0445 48.554 87.0313 48.6266 87.0458 48.6962Z" fill="#C16256"/>
        <path d="M93.5873 47.5567C96.1171 47.8728 97.2778 49.6263 97.2887 49.6445C97.3277 49.7053 97.3894 49.7482 97.46 49.7637C97.5307 49.7791 97.6046 49.7659 97.6655 49.7268C97.7264 49.6878 97.7693 49.6262 97.7847 49.5556C97.8002 49.4849 97.7869 49.4111 97.7479 49.3502C97.6958 49.2691 96.4479 47.3666 93.6551 47.0166C93.5853 47.0111 93.516 47.0328 93.4617 47.077C93.4074 47.1213 93.3722 47.1848 93.3635 47.2543C93.3547 47.3238 93.3731 47.394 93.4148 47.4503C93.4565 47.5066 93.5182 47.5447 93.5873 47.5567Z" fill="#C16256"/>
        <path d="M75.1334 102.65C74.8839 103.163 67.5525 118.281 63.3544 131.814C62.1997 135.535 60.4865 138.326 58.5977 140.413C60.8366 140.413 63.0487 139.926 65.0797 138.984C67.2218 126.01 71.0879 112.006 75.1334 102.65Z" fill="white"/>
        <path d="M111.366 86.1324C112.06 96.5193 136.713 147.563 130.107 159.229C129.592 160.139 129.285 159.995 128.758 159.472C123.5 154.964 123.17 159.952 124.424 164.8C125.913 164.8 127.389 164.8 128.911 164.8H133.515C166.801 123.238 136.222 86.5224 110.823 80.1439C110.823 80.9916 110.472 81.8284 109.873 82.6277C110.782 83.892 111.476 85.2157 111.366 86.1324Z" fill="url(#paint1_linear_1_22343)"/>
        <path d="M125.436 164.798C125.275 164.236 125.126 163.696 124.993 163.183C123.739 158.339 123.925 155.864 128.758 159.469C129.286 159.997 129.592 160.141 130.107 159.227C136.714 147.56 112.054 96.5169 111.366 86.13C111.476 85.2133 110.782 83.8896 109.871 82.618C106.815 86.7089 97.3916 89.9144 96.7616 89.9205L95.1586 85.1781C93.0989 85.6855 91.2816 88.569 91.2816 88.569C89.4945 86.8263 88.5591 85.3089 88.1581 84.0277C85.1485 87.1097 81.9874 90.7767 79.5812 94.4993C78.1273 96.3994 76.614 99.2102 75.1274 102.647C71.0819 112.003 67.2157 126.008 65.0712 138.987C63.4004 149.111 62.7789 158.606 63.9408 164.793L125.436 164.798ZM121.888 162.497L118.773 161.849C131.222 133.838 116.581 121.996 108.838 106.214C126.797 126.982 129.511 138.371 121.888 162.497Z" fill="url(#paint2_linear_1_22343)"/>
        <path d="M118.772 161.844L121.887 162.492C129.511 138.371 126.797 126.983 108.836 106.209C116.58 121.991 131.221 133.833 118.772 161.844Z" fill="white"/>
        <path d="M94.3041 79.6874C94.1977 79.2651 94.1621 78.828 94.1987 78.394C94.1987 78.394 91.3975 78.4715 89.7897 79.2418C88.8459 79.6935 87.3205 81.3344 88.1649 84.0313C88.566 85.3126 89.4977 86.83 91.2884 88.5726C91.2884 88.5726 93.1058 85.6916 95.1655 85.1818L96.7685 89.9241C97.4009 89.9241 106.825 86.7125 109.878 82.6217C110.476 81.8224 110.83 80.988 110.828 80.1379C110.828 80.127 110.828 80.1161 110.828 80.1052C110.828 80.0943 107.933 78.1058 106.333 78.8458C103.313 80.7688 101.042 81.7522 99.3322 82.1288C95.7301 82.9329 94.6239 81.0631 94.3041 79.6874Z" fill="#F4D4BE"/>
        <path d="M67.5985 87.8145C67.7282 86.698 67.8142 85.6783 67.8409 84.7967C67.8493 84.5605 67.8542 84.3328 67.8542 84.1185C66.9249 84.1681 61.669 84.3667 57.9191 79.7891L57.7507 79.5796C57.6017 79.7637 56.8214 80.6429 55.6729 82.1227C55.7274 82.1978 55.7831 82.2717 55.8425 82.3468C60.312 88.0834 67.5985 87.8145 67.5985 87.8145Z" fill="white"/>
    </g>
    <defs>
        <linearGradient id="paint0_linear_1_22343" x1="64.8517" y1="79.2406" x2="64.8517" y2="140.419" gradientUnits="userSpaceOnUse">
            <stop stop-color="#9D70FF"/>
            <stop offset="1" stop-color="#7460FF"/>
        </linearGradient>
        <linearGradient id="paint1_linear_1_22343" x1="128.995" y1="80.1439" x2="128.995" y2="164.8" gradientUnits="userSpaceOnUse">
            <stop stop-color="#9D70FF"/>
            <stop offset="1" stop-color="#7460FF"/>
        </linearGradient>
        <linearGradient id="paint2_linear_1_22343" x1="97.2876" y1="82.618" x2="97.2876" y2="164.798" gradientUnits="userSpaceOnUse">
            <stop stop-color="#9D70FF"/>
            <stop offset="1" stop-color="#7460FF"/>
        </linearGradient>
        <clipPath id="clip0_1_22343">
            <rect width="180" height="165" fill="white"/>
        </clipPath>
    </defs>
</svg>
