<svg width="16" height="16" viewBox="0 0 16 16" fill="none" xmlns="http://www.w3.org/2000/svg">
    <path d="M1.33301 7.99992C1.33301 8.31669 1.59806 8.57527 1.90836 8.57527H7.42432V14.0912C7.42432 14.4015 7.68291 14.6666 7.99967 14.6666C8.31644 14.6666 8.58149 14.4015 8.58149 14.0912V8.57527H14.091C14.4013 8.57527 14.6663 8.31669 14.6663 7.99992C14.6663 7.68315 14.4013 7.4181 14.091 7.4181H8.58149V1.90861C8.58149 1.5983 8.31644 1.33325 7.99967 1.33325C7.68291 1.33325 7.42432 1.5983 7.42432 1.90861V7.4181H1.90836C1.59806 7.4181 1.33301 7.68315 1.33301 7.99992Z" fill="white"/>
</svg>