<svg width="16" height="16" viewBox="0 0 16 16" fill="none" xmlns="http://www.w3.org/2000/svg">
    <path d="M11.5917 10.4467L8.89836 8H7.09169L4.39836 10.4467C3.64502 11.1267 3.39836 12.1733 3.76502 13.12C4.13169 14.06 5.02502 14.6667 6.03169 14.6667H9.95836C10.9717 14.6667 11.8584 14.06 12.225 13.12C12.5917 12.1733 12.345 11.1267 11.5917 10.4467ZM9.21169 12.0933H6.78502C6.53169 12.0933 6.33169 11.8867 6.33169 11.64C6.33169 11.3933 6.53836 11.1867 6.78502 11.1867H9.21169C9.46502 11.1867 9.66502 11.3933 9.66502 11.64C9.66502 11.8867 9.45836 12.0933 9.21169 12.0933Z" fill="#0066FF"/>
    <path d="M12.2351 2.87998C11.8684 1.93998 10.9751 1.33331 9.9684 1.33331H6.03507C5.0284 1.33331 4.13507 1.93998 3.7684 2.87998C3.4084 3.82665 3.65507 4.87331 4.4084 5.55331L7.10173 7.99998H8.9084L11.6017 5.55331C12.3484 4.87331 12.5951 3.82665 12.2351 2.87998ZM9.21507 4.81998H6.7884C6.53507 4.81998 6.33507 4.61331 6.33507 4.36665C6.33507 4.11998 6.54173 3.91331 6.7884 3.91331H9.21507C9.4684 3.91331 9.6684 4.11998 9.6684 4.36665C9.6684 4.61331 9.46173 4.81998 9.21507 4.81998Z" fill="#0066FF"/>
</svg>
