<svg width="20" height="20" viewBox="0 0 20 20" fill="none" xmlns="http://www.w3.org/2000/svg">
    <path d="M9.99844 18.9583C5.6651 18.9583 2.14844 15.4333 2.14844 11.1083C2.14844 6.7833 5.6651 3.24997 9.99844 3.24997C10.5848 3.24997 11.1604 3.30403 11.7228 3.41453L10.5568 2.07497C10.3318 1.81664 10.3568 1.41664 10.6151 1.19164C10.8734 0.966637 11.2734 0.991637 11.4984 1.24997L13.9068 4.01664C14.049 4.17992 14.0913 4.39981 14.038 4.59632C14.0009 4.72616 13.9222 4.84587 13.8068 4.9333L10.9984 6.99164C10.8901 7.07497 10.7651 7.1083 10.6318 7.1083C10.4401 7.1083 10.2484 7.01664 10.1234 6.84997C9.92344 6.57497 9.98177 6.1833 10.2568 5.97497L11.9337 4.75088C11.3118 4.5872 10.6614 4.49997 9.99844 4.49997C6.35677 4.49997 3.39844 7.4583 3.39844 11.1C3.39844 14.7416 6.35677 17.7 9.99844 17.7C13.6401 17.7 16.5984 14.7416 16.5984 11.1C16.5984 9.7833 16.2151 8.51664 15.4901 7.4333C15.2984 7.14997 15.3734 6.7583 15.6651 6.56664C15.9484 6.37497 16.3401 6.44997 16.5318 6.74164C17.3984 8.0333 17.8568 9.54164 17.8568 11.1083C17.8484 15.4333 14.3318 18.9583 9.99844 18.9583Z" fill="#14171A" fill-opacity="0.6"/>
</svg>
