<svg width="16" height="16" viewBox="0 0 16 16" fill="none" xmlns="http://www.w3.org/2000/svg">
    <path d="M10.792 1.33331H5.20536C2.7787 1.33331 1.33203 2.77998 1.33203 5.20665V10.7866C1.33203 13.22 2.7787 14.6666 5.20536 14.6666H10.7854C13.212 14.6666 14.6587 13.22 14.6587 10.7933V5.20665C14.6654 2.77998 13.2187 1.33331 10.792 1.33331ZM11.1854 6.46665L7.40536 10.2466C7.31203 10.34 7.18536 10.3933 7.05203 10.3933C6.9187 10.3933 6.79203 10.34 6.6987 10.2466L4.81203 8.35998C4.6187 8.16665 4.6187 7.84665 4.81203 7.65331C5.00536 7.45998 5.32536 7.45998 5.5187 7.65331L7.05203 9.18665L10.4787 5.75998C10.672 5.56665 10.992 5.56665 11.1854 5.75998C11.3787 5.95331 11.3787 6.26665 11.1854 6.46665Z" fill="#039855"/>
</svg>
