<svg width="24" height="24" viewBox="0 0 24 24" fill="none" xmlns="http://www.w3.org/2000/svg">
    <g clip-path="url(#clip0_947_31994)">
        <mask id="mask0_947_31994" style="mask-type:luminance" maskUnits="userSpaceOnUse" x="2" y="2" width="20" height="20">
            <path d="M12 22C17.5228 22 22 17.5228 22 12C22 6.47715 17.5228 2 12 2C6.47715 2 2 6.47715 2 12C2 17.5228 6.47715 22 12 22Z" fill="white"/>
        </mask>
        <g mask="url(#mask0_947_31994)">
            <path d="M2 8.95312L11.9297 8.09375L22 8.95312V9.82422L20.4297 11.9375L22 14.1758V15.0469L12.0781 15.9609L2 15.0469V14.1758L3.43359 11.8555L2 9.82422V8.95312Z" fill="#D80027"/>
            <path d="M2 2H22V8.95313H2V2Z" fill="#338AF3"/>
            <path d="M2 9.82422H22V14.1758H2V9.82422Z" fill="#EEEEEE"/>
            <path d="M2 15.0469H22V22H2V15.0469Z" fill="#6DA544"/>
            <path d="M6.57841 6.12893C6.57789 5.68315 6.72988 5.2506 7.00914 4.90313C7.2884 4.55566 7.67811 4.31417 8.11357 4.21877C7.97619 4.18952 7.83606 4.17512 7.6956 4.1758C7.42401 4.18004 7.15628 4.24088 6.90954 4.35444C6.66279 4.468 6.44244 4.63178 6.26256 4.83531C6.08269 5.03885 5.94725 5.27766 5.86489 5.5365C5.78253 5.79534 5.75507 6.06851 5.78426 6.33857C5.81345 6.60862 5.89864 6.86961 6.0344 7.10488C6.17016 7.34014 6.3535 7.5445 6.57271 7.70491C6.79192 7.86531 7.04217 7.97822 7.30749 8.03644C7.5728 8.09465 7.84734 8.09688 8.11357 8.04299C7.23466 7.84768 6.57841 7.06643 6.57841 6.12893ZM9.27372 7.01955L9.40263 7.4258H9.83232L9.48076 7.67971L9.61747 8.08596L9.26591 7.83596L8.92607 8.08596L9.05888 7.67971L8.70732 7.4258H9.13701L9.27372 7.01955ZM10.6409 7.01955L10.7737 7.4258H11.2034L10.8519 7.67971L10.9847 8.08596L10.6409 7.83596L10.2893 8.08596L10.4261 7.67971L10.0745 7.4258H10.5042L10.6409 7.01955ZM12.0081 7.01955L12.1409 7.4258H12.5706L12.219 7.67971L12.3558 8.08596L12.0042 7.83596L11.6604 8.08596L11.7933 7.67971L11.4417 7.4258H11.8714L12.0081 7.01955ZM13.3753 7.01955L13.5081 7.4258H13.9378L13.5862 7.67971L13.7229 8.08596L13.3714 7.83596L13.0276 8.08596L13.1604 7.67971L12.8089 7.4258H13.2386L13.3753 7.01955ZM14.7425 7.01955L14.8753 7.4258H15.305L14.9534 7.67971L15.0901 8.08596L14.7386 7.83596L14.3948 8.08596L14.5276 7.67971L14.1839 7.4258H14.6136L14.7425 7.01955ZM10.6409 5.59768L10.7737 6.00393H11.2034L10.8519 6.25784L10.9847 6.66409L10.6409 6.41018L10.2893 6.66409L10.4261 6.25784L10.0745 6.00393H10.5042L10.6409 5.59768ZM12.0081 5.59768L12.1409 6.00393H12.5706L12.219 6.25784L12.3558 6.66409L12.0042 6.41018L11.6604 6.66409L11.7933 6.25784L11.4417 6.00393H11.8714L12.0081 5.59768ZM13.3753 5.59768L13.5081 6.00393H13.9378L13.5862 6.25784L13.7229 6.66409L13.3714 6.41018L13.0276 6.66409L13.1604 6.25784L12.8089 6.00393H13.2386L13.3753 5.59768ZM14.7425 5.59768L14.8753 6.00393H15.305L14.9534 6.25784L15.0901 6.66409L14.7386 6.41018L14.3948 6.66409L14.5276 6.25784L14.1839 6.00393H14.6136L14.7425 5.59768ZM12.0081 4.1758L12.1409 4.58205H12.5706L12.219 4.83205L12.3597 5.24221L12.0081 4.9883L11.6643 5.24221L11.7972 4.83205L11.4456 4.58205H11.8753L12.0081 4.1758ZM13.3753 4.1758L13.5081 4.58205H13.9378L13.5862 4.83205L13.7269 5.24221L13.3753 4.9883L13.0315 5.24221L13.1643 4.83205L12.8128 4.58205H13.2425L13.3753 4.1758ZM14.7425 4.1758L14.8753 4.58205H15.305L14.9534 4.83205L15.094 5.24221L14.7425 4.9883L14.3987 5.24221L14.5315 4.83205L14.1878 4.58205H14.6175L14.7425 4.1758Z" fill="#EEEEEE"/>
        </g>
    </g>
    <path d="M12 1.375C6.13198 1.375 1.375 6.13198 1.375 12C1.375 17.868 6.13198 22.625 12 22.625C17.868 22.625 22.625 17.868 22.625 12C22.625 6.13198 17.868 1.375 12 1.375Z" stroke="white" stroke-width="1.25"/>
    <defs>
        <clipPath id="clip0_947_31994">
            <path d="M2 12C2 6.47715 6.47715 2 12 2C17.5228 2 22 6.47715 22 12C22 17.5228 17.5228 22 12 22C6.47715 22 2 17.5228 2 12Z" fill="white"/>
        </clipPath>
    </defs>
</svg>
