<svg width="32" height="33" viewBox="0 0 32 33" fill="none" xmlns="http://www.w3.org/2000/svg">
    <g clip-path="url(#clip0_970_4969)">
        <mask id="mask0_970_4969" style="mask-type:luminance" maskUnits="userSpaceOnUse" x="0" y="0" width="32" height="33">
            <path d="M16 32.2C24.8366 32.2 32 25.0366 32 16.2C32 7.36346 24.8366 0.200012 16 0.200012C7.16344 0.200012 0 7.36346 0 16.2C0 25.0366 7.16344 32.2 16 32.2Z" fill="white"/>
        </mask>
        <g mask="url(#mask0_970_4969)">
            <path d="M0 0.200012L0.5 1.57501L0 3.01251V4.45001L2 7.82501L0 11.2V13.2L2 16.2L0 19.2V21.2L2 24.575L0 27.95V32.2L1.375 31.7L2.8125 32.2H4.25L7.625 30.2L11 32.2H13L16 30.2L19 32.2H21L24.375 30.2L27.75 32.2H32L31.5 30.825L32 29.3875V27.95L30 24.575L32 21.2V19.2L30 16.2L32 13.2V11.2L30 7.82501L32 4.45001V0.200012L30.625 0.700012L29.1875 0.200012H27.75L24.375 2.20001L21 0.200012H19L16 2.20001L13 0.200012H11L7.625 2.20001L4.25 0.200012H0Z" fill="#EEEEEE"/>
            <path d="M21 0.200012V6.95001L27.75 0.200012H21ZM32 4.45001L25.25 11.2H32V4.45001ZM0 11.2H6.75L0 4.45001V11.2ZM4.25 0.200012L11 6.95001V0.200012H4.25ZM11 32.2V25.45L4.25 32.2H11ZM0 27.95L6.75 21.2H0V27.95ZM32 21.2H25.25L32 27.95V21.2ZM27.75 32.2L21 25.45V32.2H27.75Z" fill="#0052B4"/>
            <path d="M0 0.200012V3.01251L8.1875 11.2H11L0 0.200012ZM13 0.200012V13.2H0V19.2H13V32.2H19V19.2H32V13.2H19V0.200012H13ZM29.1875 0.200012L21 8.38751V11.2L32 0.200012H29.1875ZM11 21.2L0 32.2H2.8125L11 24.0125V21.2ZM21 21.2L32 32.2V29.3875L23.8125 21.2H21Z" fill="#D80027"/>
        </g>
    </g>
    <path d="M1 16.2C1 7.91574 7.71573 1.20001 16 1.20001C24.2843 1.20001 31 7.91574 31 16.2C31 24.4843 24.2843 31.2 16 31.2C7.71573 31.2 1 24.4843 1 16.2Z" stroke="white" stroke-width="2"/>
    <defs>
        <clipPath id="clip0_970_4969">
            <path d="M0 16.2C0 7.36346 7.16344 0.200012 16 0.200012C24.8366 0.200012 32 7.36346 32 16.2C32 25.0366 24.8366 32.2 16 32.2C7.16344 32.2 0 25.0366 0 16.2Z" fill="white"/>
        </clipPath>
    </defs>
</svg>
