<svg width="20" height="20" viewBox="0 0 20 20" fill="none" xmlns="http://www.w3.org/2000/svg">
    <mask id="mask0_970_3981" style="mask-type:luminance" maskUnits="userSpaceOnUse" x="0" y="0" width="20" height="20">
        <path d="M10 20C15.5228 20 20 15.5228 20 10C20 4.47715 15.5228 0 10 0C4.47715 0 0 4.47715 0 10C0 15.5228 4.47715 20 10 20Z" fill="white"/>
    </mask>
    <g mask="url(#mask0_970_3981)">
        <path d="M0 0H20V20H0V0Z" fill="#338AF3"/>
        <path d="M15.6523 10.1095H4.34766C4.34766 10.8907 5.02734 11.5235 5.80859 11.5235H5.76172C5.76172 12.3048 6.39453 12.9337 7.17578 12.9337C7.17578 13.7149 7.80469 14.3477 8.58594 14.3477H11.4141C12.1953 14.3477 12.8242 13.7149 12.8242 12.9337C13.6055 12.9337 14.2383 12.3009 14.2383 11.5235H14.1914C14.9727 11.5235 15.6523 10.8907 15.6523 10.1095Z" fill="#FFDA44"/>
        <path d="M13.9141 8.26172C13.9141 9.29979 13.5017 10.2954 12.7677 11.0294C12.0336 11.7634 11.0381 12.1758 10 12.1758C8.96193 12.1758 7.96637 11.7634 7.23234 11.0294C6.49831 10.2954 6.08594 9.29979 6.08594 8.26172" fill="#338AF3"/>
        <path d="M12.9893 8.26163L11.7666 8.83585L12.4189 10.0194L11.0908 9.76553L10.9229 11.1054L10.001 10.1171L9.0791 11.1054L8.90723 9.76553L7.5791 10.0194L8.22754 8.83585L7.00879 8.26163L8.22754 7.68741L7.5791 6.50381L8.90723 6.75772L9.0752 5.41788L9.99707 6.40225L10.9189 5.41788L11.0947 6.75772L12.4229 6.50381L11.7744 7.68741L12.9893 8.26163Z" fill="#FFDA44"/>
    </g>
</svg>
