<svg width="24" height="24" viewBox="0 0 24 24" fill="none" xmlns="http://www.w3.org/2000/svg">
    <path d="M12.1529 11.9744L12.1536 11.9737C12.2483 11.8789 12.4117 11.8789 12.5065 11.9737C12.6012 12.0683 12.6012 12.2316 12.5067 12.3264C12.5066 12.3264 12.5065 12.3265 12.5065 12.3266L10.0272 14.7958L10.0265 14.7966C8.76122 16.0618 8.76122 18.1284 10.0265 19.3937C11.2917 20.6589 13.3583 20.6589 14.6236 19.3937L18.5136 15.5037C19.7874 14.2298 20.49 12.5326 20.49 10.7301C20.49 8.92762 19.7874 7.2304 18.5136 5.95655C15.8783 3.32129 11.6017 3.32129 8.96649 5.95655L4.72649 10.1966C3.64328 11.2798 3.04004 12.7267 3.04004 14.2601C3.04004 15.7935 3.64328 17.2405 4.72649 18.3237C4.82122 18.4184 4.82122 18.5818 4.72649 18.6766L5.00147 18.9515L4.72649 18.6766C4.63192 18.7711 4.46891 18.7713 4.3741 18.6771C3.19562 17.4889 2.54004 15.925 2.54004 14.2601C2.54004 12.592 3.18782 11.0202 4.3722 9.84504L4.37359 9.84366L8.61359 5.60366C11.4383 2.77892 16.0417 2.77892 18.8665 5.60366C20.2329 6.97003 20.99 8.79291 20.99 10.7301C20.99 12.6673 20.2329 14.4902 18.8665 15.8566L14.9765 19.7466C14.2445 20.4785 13.2936 20.8401 12.33 20.8401C11.3653 20.8401 10.4047 20.4777 9.67359 19.7466C8.20897 18.2819 8.20885 15.9088 9.67324 14.444C9.67336 14.4439 9.67348 14.4438 9.67359 14.4437L12.1529 11.9744Z" fill="#292D32" stroke="white"/>
</svg>
