<svg width="20" height="20" viewBox="0 0 20 20" fill="none" xmlns="http://www.w3.org/2000/svg">
    <path d="M17.6479 8.99199L16.5599 7.72799C16.3519 7.48799 16.1839 7.03999 16.1839 6.71999V5.35999C16.1839 4.51199 15.4879 3.81599 14.6399 3.81599H13.2799C12.9679 3.81599 12.5119 3.64799 12.2719 3.43999L11.0079 2.35199C10.4559 1.87999 9.55191 1.87999 8.99191 2.35199L7.73591 3.44799C7.49591 3.64799 7.03991 3.81599 6.72791 3.81599H5.34391C4.49591 3.81599 3.79991 4.51199 3.79991 5.35999V6.72799C3.79991 7.03999 3.63191 7.48799 3.43191 7.72799L2.35191 8.99999C1.88791 9.55199 1.88791 10.448 2.35191 11L3.43191 12.272C3.63191 12.512 3.79991 12.96 3.79991 13.272V14.64C3.79991 15.488 4.49591 16.184 5.34391 16.184H6.72791C7.03991 16.184 7.49591 16.352 7.73591 16.56L8.99991 17.648C9.55191 18.12 10.4559 18.12 11.0159 17.648L12.2799 16.56C12.5199 16.352 12.9679 16.184 13.2879 16.184H14.6479C15.4959 16.184 16.1919 15.488 16.1919 14.64V13.28C16.1919 12.968 16.3599 12.512 16.5679 12.272L17.6559 11.008C18.1199 10.456 18.1199 9.54399 17.6479 8.99199ZM13.3279 8.48799L9.46391 12.352C9.35191 12.464 9.19991 12.528 9.03991 12.528C8.87991 12.528 8.72791 12.464 8.61591 12.352L6.67991 10.416C6.44791 10.184 6.44791 9.79999 6.67991 9.56799C6.91191 9.33599 7.29591 9.33599 7.52791 9.56799L9.03991 11.08L12.4799 7.63999C12.7119 7.40799 13.0959 7.40799 13.3279 7.63999C13.5599 7.87199 13.5599 8.25599 13.3279 8.48799Z" fill="url(#paint0_linear_515_7564)"/>
    <defs>
        <linearGradient id="paint0_linear_515_7564" x1="10.0034" y1="1.99799" x2="10.0034" y2="18.002" gradientUnits="userSpaceOnUse">
            <stop stop-color="#9D70FF"/>
            <stop offset="1" stop-color="#7460FF"/>
        </linearGradient>
    </defs>
</svg>
