<svg width="16" height="16" viewBox="0 0 16 16" fill="none"
    xmlns="http://www.w3.org/2000/svg">
    <path d="M14.1666 6.09998C12.6266 3.67998 10.3733 2.28665 7.99992 2.28665C6.81325 2.28665 5.65992 2.63332 4.60659 3.27998C3.55325 3.93332 2.60659 4.88665 1.83325 6.09998C1.16659 7.14665 1.16659 8.84665 1.83325 9.89332C3.37325 12.32 5.62659 13.7067 7.99992 13.7067C9.18659 13.7067 10.3399 13.36 11.3933 12.7133C12.4466 12.06 13.3933 11.1067 14.1666 9.89332C14.8333 8.85332 14.8333 7.14665 14.1666 6.09998ZM7.99992 10.6933C6.50659 10.6933 5.30659 9.48665 5.30659 7.99998C5.30659 6.51332 6.50659 5.30665 7.99992 5.30665C9.49325 5.30665 10.6933 6.51332 10.6933 7.99998C10.6933 9.48665 9.49325 10.6933 7.99992 10.6933Z" fill="#323A43"/>
    <path d="M7.99985 6.09335C6.95319 6.09335 6.09985 6.94669 6.09985 8.00002C6.09985 9.04669 6.95319 9.90002 7.99985 9.90002C9.04652 9.90002 9.90652 9.04669 9.90652 8.00002C9.90652 6.95335 9.04652 6.09335 7.99985 6.09335Z" fill="#323A43"/>
</svg>
